<svg xmlns="http://www.w3.org/2000/svg" xmlns:xlink="http://www.w3.org/1999/xlink" xmlns:lucid="lucid" width="1221" height="1016"><g transform="translate(-300 41.00000006633589)" lucid:page-tab-id="0_0"><path d="M1480 440c22.1 0 40 17.9 40 40s-17.9 40-40 40h-80c-22.1 0-40-17.9-40-40s17.9-40 40-40z" stroke="#282c33" stroke-width="2" fill="#6db1ff"/><use xlink:href="#a" transform="matrix(1,0,0,1,1365,445) translate(12.685185185185176 39.65277777777778)"/><path d="M900 406a6 6 0 0 1 6-6h148a6 6 0 0 1 6 6v148a6 6 0 0 1-6 6H906a6 6 0 0 1-6-6z" stroke="#282c33" stroke-width="2" fill="#fcce14"/><use xlink:href="#b" transform="matrix(1,0,0,1,905,405) translate(35.52469135802469 78.71527777777777)"/><path d="M1061.5 480h281.1" stroke="#3a414a" fill="none"/><path d="M1061.5 480.48h-.5v-.96h.5z" stroke="#3a414a" stroke-width=".05" fill="#3a414a"/><path d="M1357.38 480l-14.26 4.63v-9.26z" stroke="#3a414a" fill="#3a414a"/><path d="M1020 200c0 22.1-17.9 40-40 40s-40-17.9-40-40 17.9-40 40-40 40 17.9 40 40zm-68.3-28.3l56.6 56.6m-56.6 0l56.6-56.6" stroke="#282c33" stroke-width="2" fill="#dedeff"/><path d="M980.48 382.62h-.96v-41.3h.96zm0-83.95h-.96V241.5h.96z" stroke="#3a414a" stroke-width=".05" fill="#3a414a"/><path d="M980 241l.48-.02v.53h-.96v-.53z" fill="#3a414a"/><path stroke="#3a414a" stroke-width=".05" fill="#3a414a"/><path d="M980 397.38l-4.63-14.26h9.26z" fill="#3a414a"/><path d="M980 398.92l-5.3-16.28h10.6zm-3.98-15.33l3.98 12.25 3.98-12.26z" stroke="#3a414a" stroke-width=".05" fill="#3a414a"/><use xlink:href="#c" transform="matrix(1,0,0,1,919.4320987654321,298.66700352651077) translate(0.005000000000002558 14.222222222222223)"/><use xlink:href="#d" transform="matrix(1,0,0,1,919.4320987654321,298.66700352651077) translate(38.8938888888889 35.55555555555556)"/><path d="M795.34 44.13a7.8 7.8 0 0 1 7.55-5.8H854a4.6 4.6 0 0 1 4.45 5.8l-13.8 51.74a7.8 7.8 0 0 1-7.54 5.8H786a4.6 4.6 0 0 1-4.45-5.8z" stroke="#282c33" stroke-width="2" fill="#f2f2ff"/><use xlink:href="#e" transform="matrix(1,0,0,1,785,43.333333333333336) translate(17.25808641975309 20.97222222222222)"/><use xlink:href="#f" transform="matrix(1,0,0,1,785,43.333333333333336) translate(16.227222222222224 42.30555555555556)"/><path d="M842.87 101.15l88.23 69.12" stroke="#3a414a" fill="none"/><path d="M843.18 100.8l-.6.73-.52-.4.42-.28.36-.32z" stroke="#3a414a" stroke-width=".05" fill="#3a414a"/><path d="M942.72 179.37l-14.1-5.15 5.73-7.3z" stroke="#3a414a" fill="#3a414a"/><path d="M895.34-34.2a7.8 7.8 0 0 1 7.55-5.8H954a4.6 4.6 0 0 1 4.45 5.8l-13.8 51.74a7.8 7.8 0 0 1-7.54 5.8H886a4.6 4.6 0 0 1-4.45-5.8z" stroke="#282c33" stroke-width="2" fill="#f2f2ff"/><use xlink:href="#g" transform="matrix(1,0,0,1,885,-35) translate(24.245740740740743 20.97222222222222)"/><use xlink:href="#h" transform="matrix(1,0,0,1,885,-35) translate(7.832160493827166 42.30555555555556)"/><path d="M1039.8-14.2a7.8 7.8 0 0 1 7.53-5.8H1134a4.6 4.6 0 0 1 4.45 5.8l-18.24 68.4a7.8 7.8 0 0 1-7.53 5.8H1026a4.6 4.6 0 0 1-4.45-5.8z" stroke="#282c33" stroke-width="2" fill="#f2f2ff"/><use xlink:href="#i" transform="matrix(1,0,0,1,1025,-15) translate(29.955617283950623 27.34722222222222)"/><use xlink:href="#j" transform="matrix(1,0,0,1,1025,-15) translate(6.159320987654327 48.68055555555555)"/><path d="M940.45 24.2l19.7 122.44" stroke="#3a414a" fill="none"/><path d="M940.92 24.13l-.94.16-.07-.44.6-.2.32-.16z" stroke="#3a414a" stroke-width=".05" fill="#3a414a"/><path d="M962.5 161.22l-6.85-13.35 9.15-1.47z" stroke="#3a414a" fill="#3a414a"/><path d="M1053.34 61.47l-37.2 95.63" stroke="#3a414a" fill="none"/><path d="M1053.78 61.65l-.9-.34.13-.3h1.03z" stroke="#3a414a" stroke-width=".05" fill="#3a414a"/><path d="M1010.78 170.87l.86-14.98 8.64 3.35z" stroke="#3a414a" fill="#3a414a"/><path d="M800 240c0 22.1-17.9 40-40 40s-40-17.9-40-40 17.9-40 40-40 40 17.9 40 40zm-68.3-28.3l56.6 56.6m-56.6 0l56.6-56.6" stroke="#282c33" stroke-width="2" fill="#f4d9ff"/><path d="M924.9 386.94l-.68.66-37.42-38.37h1.33zm-78.37-80.38h-1.33l-47.86-49.07.68-.68z" stroke="#3a414a" stroke-width=".05" fill="#3a414a"/><path d="M798.03 256.83l-.68.66-.23-.25.43-.92z" fill="#3a414a"/><path stroke="#3a414a" stroke-width=".05" fill="#3a414a"/><path d="M934.87 397.84l-13.28-6.98 6.63-6.47z" fill="#3a414a"/><path d="M935.94 398.94l-15.15-7.96 7.57-7.38zm-13.55-8.2l11.4 6-5.7-11.55z" stroke="#3a414a" stroke-width=".05" fill="#3a414a"/><use xlink:href="#k" transform="matrix(1,0,0,1,822.2958213589411,306.564195795184) translate(0.005000000000002558 14.222222222222223)"/><use xlink:href="#d" transform="matrix(1,0,0,1,822.2958213589411,306.564195795184) translate(22.69635802469137 35.55555555555556)"/><path d="M660 320c0 22.1-17.9 40-40 40s-40-17.9-40-40 17.9-40 40-40 40 17.9 40 40zm-68.3-28.3l56.6 56.6m-56.6 0l56.6-56.6" stroke="#282c33" stroke-width="2" fill="#ffd6f5"/><path d="M883.8 416.64l-.32.9-53.87-20.05v-1.02zM728.1 358.72v1l-69.1-25.68.34-.9z" stroke="#3a414a" stroke-width=".05" fill="#3a414a"/><path d="M659.33 333.15l-.33.9-.47-.18.3-.9z" fill="#3a414a"/><path stroke="#3a414a" stroke-width=".05" fill="#3a414a"/><path d="M897.48 422.23l-14.98-.63 3.23-8.7z" fill="#3a414a"/><path d="M898.92 422.77l-17.1-.72 3.7-9.92zm-15.75-1.6l12.87.52-10.1-8z" stroke="#3a414a" stroke-width=".05" fill="#3a414a"/><use xlink:href="#l" transform="matrix(1,0,0,1,728.075028712313,356.77399865284275) translate(0.005000000000002558 14.222222222222223)"/><use xlink:href="#d" transform="matrix(1,0,0,1,728.075028712313,356.77399865284275) translate(29.09141975308642 35.55555555555556)"/><path d="M600 480c0 22.1-17.9 40-40 40s-40-17.9-40-40 17.9-40 40-40 40 17.9 40 40zm-68.3-28.3l56.6 56.6m-56.6 0l56.6-56.6" stroke="#282c33" stroke-width="2" fill="#ffd9d9"/><path d="M701.06 493.9H599.18v-.95h101.88zm181.56 0h-86v-.95h86z" stroke="#3a414a" stroke-width=".05" fill="#3a414a"/><path d="M599.2 493.9h-.67l.3-.95h.36z" fill="#3a414a"/><path stroke="#3a414a" stroke-width=".05" fill="#3a414a"/><path d="M897.38 493.42l-14.26 4.63v-9.27z" fill="#3a414a"/><path d="M898.92 493.42l-16.28 5.3v-10.6zm-15.33 3.98l12.25-3.98-12.26-3.98z" stroke="#3a414a" stroke-width=".05" fill="#3a414a"/><use xlink:href="#m" transform="matrix(1,0,0,1,701.062706893026,472.0863919765809) translate(0.005000000000002558 14.222222222222223)"/><use xlink:href="#n" transform="matrix(1,0,0,1,701.062706893026,472.0863919765809) translate(36.449444444444445 14.222222222222223)"/><use xlink:href="#o" transform="matrix(1,0,0,1,701.062706893026,472.0863919765809) translate(26.103765432098776 35.55555555555556)"/><path d="M660 640c0 22.1-17.9 40-40 40s-40-17.9-40-40 17.9-40 40-40 40 17.9 40 40zm-68.3-28.3l56.6 56.6m-56.6 0l56.6-56.6" stroke="#282c33" stroke-width="2" fill="#ffdda6"/><path d="M659.33 653.66l-.38-.88 69.44-30.07h2.38zm224.82-97.38l-54.86 23.76h-2.4l56.88-24.63z" stroke="#3a414a" stroke-width=".05" fill="#3a414a"/><path d="M659.34 653.65l-.85.37.38-1.2z" fill="#3a414a"/><path stroke="#3a414a" stroke-width=".05" fill="#3a414a"/><path d="M886.27 559.9l-3.7-8.5 14.94-1.42z" fill="#3a414a"/><path d="M886.1 560.7l-4.2-9.72 17.03-1.62zm-2.82-8.9l3.16 7.3 9.66-8.5z" stroke="#3a414a" stroke-width=".05" fill="#3a414a"/><use xlink:href="#p" transform="matrix(1,0,0,1,721.6553183753484,580.0431922720414) translate(0.005000000000002558 14.222222222222223)"/><use xlink:href="#d" transform="matrix(1,0,0,1,721.6553183753484,580.0431922720414) translate(35.51117283950618 35.55555555555556)"/><path d="M800 760c0 22.1-17.9 40-40 40s-40-17.9-40-40 17.9-40 40-40 40 17.9 40 40zm-68.3-28.3l56.6 56.6m-56.6 0l56.6-56.6" stroke="#282c33" stroke-width="2" fill="#fff7a1"/><path d="M787.3 728.83l-.72-.6 50.67-61.94h1.23zM914 573.98l-40.62 49.64h-1.23l41.1-50.24z" stroke="#3a414a" stroke-width=".05" fill="#3a414a"/><path d="M787.32 728.82l-.32.4-.74-.6.33-.4z" fill="#3a414a"/><path stroke="#3a414a" stroke-width=".05" fill="#3a414a"/><path d="M917.53 576.23l-7.17-5.87 12.62-8.1z" fill="#3a414a"/><path d="M917.74 577l-8.2-6.7 14.4-9.24zm-6.58-6.6l6.17 5.05 4.67-12z" stroke="#3a414a" stroke-width=".05" fill="#3a414a"/><use xlink:href="#q" transform="matrix(1,0,0,1,776.4754379881387,623.6244505230441) translate(0.0049999999999954525 14.222222222222223)"/><use xlink:href="#d" transform="matrix(1,0,0,1,776.4754379881387,623.6244505230441) translate(57.16549382716049 35.55555555555556)"/><path d="M1020 820c0 22.1-17.9 40-40 40s-40-17.9-40-40 17.9-40 40-40 40 17.9 40 40zm-68.3-28.3l56.6 56.6m-56.6 0l56.6-56.6" stroke="#282c33" stroke-width="2" fill="#e8e2c8"/><path d="M980.48 778.5h-.96v-87.17h.96zm0-129.83h-.96v-71.3h.96z" stroke="#3a414a" stroke-width=".05" fill="#3a414a"/><path d="M980.48 779.03L980 779l-.48.02v-.53h.96z" fill="#3a414a"/><path stroke="#3a414a" stroke-width=".05" fill="#3a414a"/><path d="M984.63 576.88h-9.26l4.63-14.26z" fill="#3a414a"/><path d="M985.3 577.36h-10.6l5.3-16.28zm-9.28-.95h7.96L980 564.16z" stroke="#3a414a" stroke-width=".05" fill="#3a414a"/><use xlink:href="#r" transform="matrix(1,0,0,1,917.4567901234568,648.6663298068225) translate(13.264259259259255 14.222222222222223)"/><use xlink:href="#s" transform="matrix(1,0,0,1,917.4567901234568,648.6663298068225) translate(0.005000000000002558 35.55555555555556)"/><path d="M1200 760c0 22.1-17.9 40-40 40s-40-17.9-40-40 17.9-40 40-40 40 17.9 40 40zm-68.3-28.3l56.6 56.6m-56.6 0l56.6-56.6" stroke="#282c33" stroke-width="2" fill="#c3f7c8"/><path d="M1138.8 724.37l-.8.48-42.23-71.16h1.1zm-54.58-92.02h-1.1l-33.83-57.02.8-.48z" stroke="#3a414a" stroke-width=".05" fill="#3a414a"/><path d="M1139.07 724.8l-.83.47-.26-.43.82-.48z" fill="#3a414a"/><path stroke="#3a414a" stroke-width=".05" fill="#3a414a"/><path d="M1053.42 572.3l-7.97 4.73-3.3-14.64z" fill="#3a414a"/><path d="M1054.23 572.37l-9.1 5.4-3.76-16.7zm-8.46 3.9l6.85-4.05-9.68-8.5z" stroke="#3a414a" stroke-width=".05" fill="#3a414a"/><use xlink:href="#t" transform="matrix(1,0,0,1,1057.4510680639855,632.3528576894643) translate(0.005000000000002558 14.222222222222223)"/><path d="M1300 640c0 22.1-17.9 40-40 40s-40-17.9-40-40 17.9-40 40-40 40 17.9 40 40zm-68.3-28.3l56.6 56.6m-56.6 0l56.6-56.6" stroke="#282c33" stroke-width="2" fill="#cfe4ff"/><path d="M1228.3 613.16l-.4.86-60.9-27.8h2.3zm-105.75-48.26h-2.3l-44.54-20.33.4-.87z" stroke="#3a414a" stroke-width=".05" fill="#3a414a"/><path d="M1228.88 613.42l-.63.76-.35-.16.4-.87z" fill="#3a414a"/><path stroke="#3a414a" stroke-width=".05" fill="#3a414a"/><path d="M1077.38 539.7l-3.85 8.44-11.06-10.13z" fill="#3a414a"/><path d="M1078.08 539.3l-4.4 9.64-12.6-11.57zm-4.7 8.05l3.3-7.24-12.8-1.46z" stroke="#3a414a" stroke-width=".05" fill="#3a414a"/><use xlink:href="#u" transform="matrix(1,0,0,1,1112.733034838434,564.8986021182662) translate(0.005000000000002558 14.222222222222223)"/><path d="M1170 85.8a7.8 7.8 0 0 1 7.56-5.8H1194a4.6 4.6 0 0 1 4.45 5.8l-8.46 31.74a7.8 7.8 0 0 1-7.56 5.8H1166a4.6 4.6 0 0 1-4.45-5.8z" stroke="#282c33" stroke-width="2" fill="#f2f2ff"/><use xlink:href="#v" transform="matrix(1,0,0,1,1165,85) translate(7.097592592592594 20.59722222222222)"/><path d="M1162 110.52l-130.52 64.17" stroke="#3a414a" fill="none"/><path d="M1162.28 110.9l-.1.05-.4-.85.82-.4z" stroke="#3a414a" stroke-width=".05" fill="#3a414a"/><path d="M1018.23 181.2l10.76-10.45 4.08 8.32z" stroke="#3a414a" fill="#3a414a"/><path d="M575.34 185.8a7.8 7.8 0 0 1 7.55-5.8H634a4.6 4.6 0 0 1 4.45 5.8l-13.8 51.74a7.8 7.8 0 0 1-7.54 5.8H566a4.6 4.6 0 0 1-4.45-5.8z" stroke="#282c33" stroke-width="2" fill="#fbf0ff"/><use xlink:href="#w" transform="matrix(1,0,0,1,565,185) translate(18.75191358024692 31.09722222222222)"/><path d="M559.8 85.8a7.8 7.8 0 0 1 7.53-5.8H654a4.6 4.6 0 0 1 4.45 5.8l-18.24 68.4a7.8 7.8 0 0 1-7.53 5.8H546a4.6 4.6 0 0 1-4.45-5.8z" stroke="#282c33" stroke-width="2" fill="#fbf0ff"/><use xlink:href="#x" transform="matrix(1,0,0,1,545,85) translate(29.906234567901237 27.53472222222222)"/><use xlink:href="#y" transform="matrix(1,0,0,1,545,85) translate(10.085246913580251 48.86805555555555)"/><path d="M675.34 65.8a7.8 7.8 0 0 1 7.55-5.8H754a4.6 4.6 0 0 1 4.45 5.8l-13.8 51.74a7.8 7.8 0 0 1-7.54 5.8H666a4.6 4.6 0 0 1-4.45-5.8z" stroke="#282c33" stroke-width="2" fill="#fbf0ff"/><use xlink:href="#z" transform="matrix(1,0,0,1,665,65) translate(17.430925925925926 20.97222222222222)"/><use xlink:href="#A" transform="matrix(1,0,0,1,665,65) translate(18.325987654320997 42.30555555555556)"/><path d="M850 165.8a7.8 7.8 0 0 1 7.56-5.8H874a4.6 4.6 0 0 1 4.45 5.8L870 197.54a7.8 7.8 0 0 1-7.56 5.8H846a4.6 4.6 0 0 1-4.45-5.8z" stroke="#282c33" stroke-width="2" fill="#fbf0ff"/><use xlink:href="#v" transform="matrix(1,0,0,1,845,165) translate(7.097592592592594 20.59722222222222)"/><path d="M839.94 199.48L804 206.75" stroke="#3a414a" fill="none"/><path d="M840.42 199.32l.1.53-.5.1-.2-.93.6-.12z" stroke="#3a414a" stroke-width=".05" fill="#3a414a"/><path d="M789.53 209.67l13.06-7.37 1.83 9.1z" stroke="#3a414a" fill="#3a414a"/><path d="M734.5 124.82l14.9 58.9" stroke="#3a414a" fill="none"/><path d="M734.96 124.7l-.93.25-.15-.62h.98z" stroke="#3a414a" stroke-width=".05" fill="#3a414a"/><path d="M753.03 198.02l-8-12.7 9-2.27z" stroke="#3a414a" fill="#3a414a"/><path d="M642.37 151.78l71.75 53.8" stroke="#3a414a" fill="none"/><path d="M642.67 151.4l-.57.77-.26-.2.27-.98z" stroke="#3a414a" stroke-width=".05" fill="#3a414a"/><path d="M725.94 214.45l-14.2-4.85 5.56-7.42z" stroke="#3a414a" fill="#3a414a"/><path d="M633.07 211.82l70.36 23.08" stroke="#3a414a" fill="none"/><path d="M633.23 211.38l-.3.9-.46-.15.24-.92z" stroke="#3a414a" stroke-width=".05" fill="#3a414a"/><path d="M717.46 239.5l-15-.04 2.9-8.8z" stroke="#3a414a" fill="#3a414a"/><path d="M334.45 325.8A7.8 7.8 0 0 1 342 320h132a4.6 4.6 0 0 1 4.45 5.8l-12.9 48.4A7.8 7.8 0 0 1 458 380H326a4.6 4.6 0 0 1-4.45-5.8z" stroke="#282c33" stroke-width="2" fill="#fff0fb"/><use xlink:href="#B" transform="matrix(1,0,0,1,325,325.00000000000006) translate(12.338333333333347 29.84722222222222)"/><path d="M319.8 225.8a7.8 7.8 0 0 1 7.53-5.8H414a4.6 4.6 0 0 1 4.45 5.8l-18.24 68.4a7.8 7.8 0 0 1-7.53 5.8H306a4.6 4.6 0 0 1-4.45-5.8z" stroke="#282c33" stroke-width="2" fill="#fff0fb"/><use xlink:href="#C" transform="matrix(1,0,0,1,305,225.00000000000006) translate(33.85685185185186 27.53472222222222)"/><use xlink:href="#D" transform="matrix(1,0,0,1,305,225.00000000000006) translate(17.986481481481484 48.86805555555555)"/><path d="M455.34 174.13a7.8 7.8 0 0 1 7.55-5.8H534a4.6 4.6 0 0 1 4.45 5.8l-13.8 51.74a7.8 7.8 0 0 1-7.54 5.8H446a4.6 4.6 0 0 1-4.45-5.8z" stroke="#282c33" stroke-width="2" fill="#fff0fb"/><use xlink:href="#E" transform="matrix(1,0,0,1,445,173.33333333333334) translate(19.406234567901237 20.97222222222222)"/><use xlink:href="#F" transform="matrix(1,0,0,1,445,173.33333333333334) translate(9.930925925925928 42.30555555555556)"/><path d="M473.53 349.93l91.7-13.7" stroke="#3a414a" fill="none"/><path d="M473.6 350.4l-.7.1.27-1 .3-.05z" stroke="#3a414a" stroke-width=".05" fill="#3a414a"/><path d="M579.84 334.05l-13.43 6.7-1.36-9.17z" stroke="#3a414a" fill="#3a414a"/><path d="M517.03 233.02l55.53 55.53" stroke="#3a414a" fill="none"/><path d="M517.38 232.7l-.68.67-.7-.7h1.14l.2-.02z" stroke="#3a414a" stroke-width=".05" fill="#3a414a"/><path d="M583 299l-13.37-6.82 6.56-6.56z" stroke="#3a414a" fill="#3a414a"/><path d="M407.94 271.06l156.18 36.05" stroke="#3a414a" fill="none"/><path d="M408.06 270.6l-.22.93-.5-.12.23-.9z" stroke="#3a414a" stroke-width=".05" fill="#3a414a"/><path d="M578.5 310.43l-14.93 1.3 2.08-9.03z" stroke="#3a414a" fill="#3a414a"/><path d="M334.45 505.8A7.8 7.8 0 0 1 342 500h112a4.6 4.6 0 0 1 4.45 5.8l-12.9 48.4A7.8 7.8 0 0 1 438 560H326a4.6 4.6 0 0 1-4.45-5.8z" stroke="#282c33" stroke-width="2" fill="#fff0f0"/><use xlink:href="#G" transform="matrix(1,0,0,1,325,505) translate(15.733395061728404 17.34722222222222)"/><use xlink:href="#H" transform="matrix(1,0,0,1,325,505) translate(47.22104938271605 38.68055555555556)"/><path d="M314.45 405.8A7.8 7.8 0 0 1 322 400h72a4.6 4.6 0 0 1 4.45 5.8l-12.9 48.4A7.8 7.8 0 0 1 378 460h-72a4.6 4.6 0 0 1-4.45-5.8z" stroke="#282c33" stroke-width="2" fill="#fff0f0"/><use xlink:href="#I" transform="matrix(1,0,0,1,305,405) translate(7.005000000000004 29.84722222222222)"/><path d="M393.52 430.13l112.5 30.56" stroke="#3a414a" fill="none"/><path d="M393.65 429.68l-.25.9-.5-.12.26-.92z" stroke="#3a414a" stroke-width=".05" fill="#3a414a"/><path d="M520.27 464.56l-14.98.74 2.42-8.95z" stroke="#3a414a" fill="#3a414a"/><path d="M458.88 509.74L505 496.18" stroke="#3a414a" fill="none"/><path d="M459.03 510.2l-.77.22.28-1.07.22-.07z" stroke="#3a414a" stroke-width=".05" fill="#3a414a"/><path d="M519.16 492l-12.37 8.48-2.63-8.9z" stroke="#3a414a" fill="#3a414a"/><path d="M394.45 685.8A7.8 7.8 0 0 1 402 680h112a4.6 4.6 0 0 1 4.45 5.8l-12.9 48.4A7.8 7.8 0 0 1 498 740H386a4.6 4.6 0 0 1-4.45-5.8z" stroke="#282c33" stroke-width="2" fill="#fff3d9"/><use xlink:href="#J" transform="matrix(1,0,0,1,385.00000000000006,685) translate(35.955617283950616 17.34722222222222)"/><use xlink:href="#K" transform="matrix(1,0,0,1,385.00000000000006,685) translate(22.06055555555556 38.68055555555556)"/><path d="M369.12 585.8a7.8 7.8 0 0 1 7.55-5.8H514a4.6 4.6 0 0 1 4.45 5.8l-7.57 28.4a7.8 7.8 0 0 1-7.55 5.8H366a4.6 4.6 0 0 1-4.45-5.8z" stroke="#282c33" stroke-width="2" fill="#fff3d9"/><use xlink:href="#L" transform="matrix(1,0,0,1,365.00000000000006,585) translate(6.023518518518552 17.97222222222222)"/><path d="M511.82 615.96l52.2 11.6" stroke="#3a414a" fill="none"/><path d="M511.94 615.5l-.2.93-.62-.14.36-.75.05-.14z" stroke="#3a414a" stroke-width=".05" fill="#3a414a"/><path d="M578.45 630.77l-14.94 1.43 2.03-9.05z" stroke="#3a414a" fill="#3a414a"/><path d="M513.5 709.8l68.97-29.18" stroke="#3a414a" fill="none"/><path d="M513.7 710.24l-.82.34.3-1.16.14-.06z" stroke="#3a414a" stroke-width=".05" fill="#3a414a"/><path d="M596.06 674.86l-11.33 9.83-3.6-8.55z" stroke="#3a414a" fill="#3a414a"/><path d="M632.5 885.8a7.8 7.8 0 0 1 7.54-5.8H714a4.6 4.6 0 0 1 4.45 5.8l-10.95 41.07a7.8 7.8 0 0 1-7.54 5.8H626a4.6 4.6 0 0 1-4.45-5.8z" stroke="#282c33" stroke-width="2" fill="#fcfcca"/><use xlink:href="#M" transform="matrix(1,0,0,1,625,885) translate(6.560555555555554 24.97222222222222)"/><path d="M532.5 799.46a7.8 7.8 0 0 1 7.54-5.8H674a4.6 4.6 0 0 1 4.45 5.8l-10.95 41.08a7.8 7.8 0 0 1-7.54 5.8H526a4.6 4.6 0 0 1-4.45-5.8z" stroke="#282c33" stroke-width="2" fill="#fcfcca"/><use xlink:href="#N" transform="matrix(1,0,0,1,525,798.6666666666666) translate(19.770432098765433 16.90972222222222)"/><use xlink:href="#O" transform="matrix(1,0,0,1,525,798.6666666666666) translate(10.387716049382734 38.24305555555556)"/><use xlink:href="#P" transform="matrix(1,0,0,1,525,798.6666666666666) translate(49.8938888888889 38.24305555555556)"/><path d="M783.88 884.46a7.8 7.8 0 0 1 7.54-5.8H874a4.6 4.6 0 0 1 4.45 5.8l-22.33 83.74a7.8 7.8 0 0 1-7.54 5.8H766a4.6 4.6 0 0 1-4.45-5.8z" stroke="#282c33" stroke-width="2" fill="#fcfcca"/><use xlink:href="#Q" transform="matrix(1,0,0,1,765,883.6666666666666) translate(31.91240740740741 24.97222222222222)"/><use xlink:href="#R" transform="matrix(1,0,0,1,765,883.6666666666666) translate(14.066728395061732 46.30555555555555)"/><use xlink:href="#S" transform="matrix(1,0,0,1,765,883.6666666666666) translate(21.381543209876547 67.63888888888889)"/><path d="M673.36 792.5l32.96-12.37" stroke="#3a414a" fill="none"/><path d="M673.44 792.67h-1.9l1.66-.63z" stroke="#3a414a" stroke-width=".05" fill="#3a414a"/><path d="M720.15 774.95l-11.73 9.34-3.26-8.7z" stroke="#3a414a" fill="#3a414a"/><path d="M691.53 878.56l38.7-69.6" stroke="#3a414a" fill="none"/><path d="M691.95 878.78l-.12.22h-1.1l.4-.68z" stroke="#3a414a" stroke-width=".05" fill="#3a414a"/><path d="M737.4 796.04l-2.88 14.72-8.1-4.5z" stroke="#3a414a" fill="#3a414a"/><path d="M792.26 877.2l-2.16-5.1m-2.15-5.08l-4.32-10.2m-2.15-5.08l-4.3-10.2m-2.17-5.08l-4.3-10.2m-2.16-5.08l-2.15-5.1" stroke="#3a414a" fill="none"/><path d="M792.97 877.67h-1.03l-.12-.3.87-.36z" stroke="#3a414a" stroke-width=".05" fill="#3a414a"/><path d="M760.63 802.5l9.83 11.32-8.54 3.6z" stroke="#3a414a" fill="#3a414a"/><path d="M1272.85 811.8a7.8 7.8 0 0 1 7.55-5.8H1414a4.6 4.6 0 0 1 4.45 5.8l-11.3 42.4a7.8 7.8 0 0 1-7.55 5.8H1266a4.6 4.6 0 0 1-4.45-5.8z" stroke="#282c33" stroke-width="2" fill="#e3fae3"/><g><use xlink:href="#T" transform="matrix(1,0,0,1,1265,811.0000000000001) translate(11.424753086419765 16.97222222222222)"/><use xlink:href="#U" transform="matrix(1,0,0,1,1265,811.0000000000001) translate(77.54820987654321 16.97222222222222)"/><use xlink:href="#V" transform="matrix(1,0,0,1,1265,811.0000000000001) translate(15.795123456790138 38.30555555555556)"/><use xlink:href="#W" transform="matrix(1,0,0,1,1265,811.0000000000001) translate(66.01734567901235 38.30555555555556)"/></g><path d="M1083.88 864.46a7.8 7.8 0 0 1 7.54-5.8H1214a4.6 4.6 0 0 1 4.45 5.8l-22.33 83.74a7.8 7.8 0 0 1-7.54 5.8H1066a4.6 4.6 0 0 1-4.45-5.8z" stroke="#282c33" stroke-width="2" fill="#e3fae3"/><g><use xlink:href="#X" transform="matrix(1,0,0,1,1065,863.6666666666667) translate(23.295123456790133 16.90972222222222)"/><use xlink:href="#Y" transform="matrix(1,0,0,1,1065,863.6666666666667) translate(126.90006172839506 16.90972222222222)"/><use xlink:href="#Z" transform="matrix(1,0,0,1,1065,863.6666666666667) translate(32.11611111111111 38.24305555555556)"/><use xlink:href="#aa" transform="matrix(1,0,0,1,1065,863.6666666666667) translate(21.184012345679015 59.576388888888886)"/><use xlink:href="#W" transform="matrix(1,0,0,1,1065,863.6666666666667) translate(34.406234567901244 80.90972222222223)"/></g><path d="M1274.73 806.53l-61.56-24.97" stroke="#3a414a" fill="none"/><path d="M1275.67 806.4l-.64.42-.26.24-.23-.1.35-.88z" stroke="#3a414a" stroke-width=".05" fill="#3a414a"/><path d="M1199.48 776l14.96 1.08-3.48 8.6z" stroke="#3a414a" fill="#3a414a"/><path d="M1140.08 857.17l7-41.3" stroke="#3a414a" fill="none"/><path d="M1140.55 857.24l-.07.43h-.96l.1-.6z" stroke="#3a414a" stroke-width=".05" fill="#3a414a"/><path d="M1149.56 801.33l2.18 14.83-9.14-1.54z" stroke="#3a414a" fill="#3a414a"/><defs><path fill="#3a414a" d="M185-189c-5-48-123-54-124 2 14 75 158 14 163 119 3 78-121 87-175 55-17-10-28-26-33-46l33-7c5 56 141 63 141-1 0-78-155-14-162-118-5-82 145-84 179-34 5 7 8 16 11 25" id="ab"/><path fill="#3a414a" d="M179-190L93 31C79 59 56 82 12 73V49c39 6 53-20 64-50L1-190h34L92-34l54-156h33" id="ac"/><path fill="#3a414a" d="M117-194c89-4 53 116 60 194h-32v-121c0-31-8-49-39-48C34-167 62-67 57 0H25l-1-190h30c1 10-1 24 2 32 11-22 29-35 61-36" id="ad"/><path fill="#3a414a" d="M141-36C126-15 110 5 73 4 37 3 15-17 15-53c-1-64 63-63 125-63 3-35-9-54-41-54-24 1-41 7-42 31l-33-3c5-37 33-52 76-52 45 0 72 20 72 64v82c-1 20 7 32 28 27v20c-31 9-61-2-59-35zM48-53c0 20 12 33 32 33 41-3 63-29 60-74-43 2-92-5-92 41" id="ae"/><path fill="#3a414a" d="M59-47c-2 24 18 29 38 22v24C64 9 27 4 27-40v-127H5v-23h24l9-43h21v43h35v23H59v120" id="af"/><path fill="#3a414a" d="M106-169C34-169 62-67 57 0H25v-261h32l-1 103c12-21 28-36 61-36 89 0 53 116 60 194h-32v-121c2-32-8-49-39-48" id="ag"/><path fill="#3a414a" d="M114-163C36-179 61-72 57 0H25l-1-190h30c1 12-1 29 2 39 6-27 23-49 58-41v29" id="ah"/><path fill="#3a414a" d="M100-194c62-1 85 37 85 99 1 63-27 99-86 99S16-35 15-95c0-66 28-99 85-99zM99-20c44 1 53-31 53-75 0-43-8-75-51-75s-53 32-53 75 10 74 51 75" id="ai"/><path fill="#3a414a" d="M115-194c55 1 70 41 70 98S169 2 115 4C84 4 66-9 55-30l1 105H24l-1-265h31l2 30c10-21 28-34 59-34zm-8 174c40 0 45-34 45-75s-6-73-45-74c-42 0-51 32-51 76 0 43 10 73 51 73" id="aj"/><g id="a"><use transform="matrix(0.06172839506172839,0,0,0.06172839506172839,0,0)" xlink:href="#ab"/><use transform="matrix(0.06172839506172839,0,0,0.06172839506172839,14.814814814814813,0)" xlink:href="#ac"/><use transform="matrix(0.06172839506172839,0,0,0.06172839506172839,25.925925925925924,0)" xlink:href="#ad"/><use transform="matrix(0.06172839506172839,0,0,0.06172839506172839,38.2716049382716,0)" xlink:href="#ae"/><use transform="matrix(0.06172839506172839,0,0,0.06172839506172839,50.61728395061728,0)" xlink:href="#ad"/><use transform="matrix(0.06172839506172839,0,0,0.06172839506172839,62.962962962962955,0)" xlink:href="#af"/><use transform="matrix(0.06172839506172839,0,0,0.06172839506172839,69.1358024691358,0)" xlink:href="#ag"/><use transform="matrix(0.06172839506172839,0,0,0.06172839506172839,81.48148148148148,0)" xlink:href="#ah"/><use transform="matrix(0.06172839506172839,0,0,0.06172839506172839,88.82716049382717,0)" xlink:href="#ai"/><use transform="matrix(0.06172839506172839,0,0,0.06172839506172839,101.17283950617285,0)" xlink:href="#aj"/><use transform="matrix(0.06172839506172839,0,0,0.06172839506172839,113.51851851851853,0)" xlink:href="#ac"/></g><path fill="#3a414a" d="M100-194c63 0 86 42 84 106H49c0 40 14 67 53 68 26 1 43-12 49-29l28 8c-11 28-37 45-77 45C44 4 14-33 15-96c1-61 26-98 85-98zm52 81c6-60-76-77-97-28-3 7-6 17-6 28h103" id="ak"/><path fill="#3a414a" d="M96-169c-40 0-48 33-48 73s9 75 48 75c24 0 41-14 43-38l32 2c-6 37-31 61-74 61-59 0-76-41-82-99-10-93 101-131 147-64 4 7 5 14 7 22l-32 3c-4-21-16-35-41-35" id="al"/><path fill="#3a414a" d="M24-231v-30h32v30H24zM24 0v-190h32V0H24" id="am"/><path fill="#3a414a" d="M135-143c-3-34-86-38-87 0 15 53 115 12 119 90S17 21 10-45l28-5c4 36 97 45 98 0-10-56-113-15-118-90-4-57 82-63 122-42 12 7 21 19 24 35" id="an"/><g id="b"><use transform="matrix(0.06172839506172839,0,0,0.06172839506172839,0,0)" xlink:href="#ab"/><use transform="matrix(0.06172839506172839,0,0,0.06172839506172839,14.814814814814813,0)" xlink:href="#aj"/><use transform="matrix(0.06172839506172839,0,0,0.06172839506172839,27.160493827160494,0)" xlink:href="#ak"/><use transform="matrix(0.06172839506172839,0,0,0.06172839506172839,39.50617283950617,0)" xlink:href="#al"/><use transform="matrix(0.06172839506172839,0,0,0.06172839506172839,50.61728395061728,0)" xlink:href="#am"/><use transform="matrix(0.06172839506172839,0,0,0.06172839506172839,55.49382716049382,0)" xlink:href="#ak"/><use transform="matrix(0.06172839506172839,0,0,0.06172839506172839,67.8395061728395,0)" xlink:href="#an"/></g><path fill="#333" d="M230 0l2-204L168 0h-37L68-204 70 0H24v-248h70l56 185 57-185h69V0h-46" id="ao"/><path fill="#333" d="M110-194c64 0 96 36 96 99 0 64-35 99-97 99-61 0-95-36-95-99 0-62 34-99 96-99zm-1 164c35 0 45-28 45-65 0-40-10-65-43-65-34 0-45 26-45 65 0 36 10 65 43 65" id="ap"/><path fill="#333" d="M135-150c-39-12-60 13-60 57V0H25l-1-190h47c2 13-1 29 3 40 6-28 27-53 61-41v41" id="aq"/><path fill="#333" d="M135-194c53 0 70 44 70 98 0 56-19 98-73 100-31 1-45-17-59-34 3 33 2 69 2 105H25l-1-265h48c2 10 0 23 3 31 11-24 29-35 60-35zM114-30c33 0 39-31 40-66 0-38-9-64-40-64-56 0-55 130 0 130" id="ar"/><path fill="#333" d="M114-157C55-157 80-60 75 0H25v-261h50l-1 109c12-26 28-41 61-42 86-1 58 113 63 194h-50c-7-57 23-157-34-157" id="as"/><path fill="#333" d="M25 0v-261h50V0H25" id="at"/><path fill="#333" d="M195-6C206 82 75 100 31 46c-4-6-6-13-8-21l49-6c3 16 16 24 34 25 40 0 42-37 40-79-11 22-30 35-61 35-53 0-70-43-70-97 0-56 18-96 73-97 30 0 46 14 59 34l2-30h47zm-90-29c32 0 41-27 41-63 0-35-9-62-40-62-32 0-39 29-40 63 0 36 9 62 39 62" id="au"/><path fill="#333" d="M25-224v-37h50v37H25zM25 0v-190h50V0H25" id="av"/><path fill="#333" d="M190-63c-7 42-38 67-86 67-59 0-84-38-90-98-12-110 154-137 174-36l-49 2c-2-19-15-32-35-32-30 0-35 28-38 64-6 74 65 87 74 30" id="aw"/><path fill="#333" d="M133-34C117-15 103 5 69 4 32 3 11-16 11-54c-1-60 55-63 116-61 1-26-3-47-28-47-18 1-26 9-28 27l-52-2c7-38 36-58 82-57s74 22 75 68l1 82c-1 14 12 18 25 15v27c-30 8-71 5-69-32zm-48 3c29 0 43-24 42-57-32 0-66-3-65 30 0 17 8 27 23 27" id="ax"/><g id="c"><use transform="matrix(0.04938271604938272,0,0,0.04938271604938272,0,0)" xlink:href="#ao"/><use transform="matrix(0.04938271604938272,0,0,0.04938271604938272,14.765432098765434,0)" xlink:href="#ap"/><use transform="matrix(0.04938271604938272,0,0,0.04938271604938272,25.58024691358025,0)" xlink:href="#aq"/><use transform="matrix(0.04938271604938272,0,0,0.04938271604938272,32.49382716049383,0)" xlink:href="#ar"/><use transform="matrix(0.04938271604938272,0,0,0.04938271604938272,43.308641975308646,0)" xlink:href="#as"/><use transform="matrix(0.04938271604938272,0,0,0.04938271604938272,54.12345679012346,0)" xlink:href="#ap"/><use transform="matrix(0.04938271604938272,0,0,0.04938271604938272,64.93827160493828,0)" xlink:href="#at"/><use transform="matrix(0.04938271604938272,0,0,0.04938271604938272,69.87654320987656,0)" xlink:href="#ap"/><use transform="matrix(0.04938271604938272,0,0,0.04938271604938272,80.69135802469137,0)" xlink:href="#au"/><use transform="matrix(0.04938271604938272,0,0,0.04938271604938272,91.50617283950618,0)" xlink:href="#av"/><use transform="matrix(0.04938271604938272,0,0,0.04938271604938272,96.44444444444446,0)" xlink:href="#aw"/><use transform="matrix(0.04938271604938272,0,0,0.04938271604938272,106.320987654321,0)" xlink:href="#ax"/><use transform="matrix(0.04938271604938272,0,0,0.04938271604938272,116.19753086419755,0)" xlink:href="#at"/></g><path fill="#333" d="M115-3C79 11 28 4 28-45v-112H4v-33h27l15-45h31v45h36v33H77v99c-1 23 16 31 38 25v30" id="ay"/><path fill="#333" d="M137-138c1-29-70-34-71-4 15 46 118 7 119 86 1 83-164 76-172 9l43-7c4 19 20 25 44 25 33 8 57-30 24-41C81-84 22-81 20-136c-2-80 154-74 161-7" id="az"/><g id="d"><use transform="matrix(0.04938271604938272,0,0,0.04938271604938272,0,0)" xlink:href="#ay"/><use transform="matrix(0.04938271604938272,0,0,0.04938271604938272,5.8765432098765435,0)" xlink:href="#aq"/><use transform="matrix(0.04938271604938272,0,0,0.04938271604938272,12.790123456790125,0)" xlink:href="#ax"/><use transform="matrix(0.04938271604938272,0,0,0.04938271604938272,22.666666666666668,0)" xlink:href="#av"/><use transform="matrix(0.04938271604938272,0,0,0.04938271604938272,27.60493827160494,0)" xlink:href="#ay"/><use transform="matrix(0.04938271604938272,0,0,0.04938271604938272,33.48148148148148,0)" xlink:href="#az"/></g><path fill="#3a414a" d="M160-131c35 5 61 23 61 61C221 17 115-2 30 0v-248c76 3 177-17 177 60 0 33-19 50-47 57zm-97-11c50-1 110 9 110-42 0-47-63-36-110-37v79zm0 115c55-2 124 14 124-45 0-56-70-42-124-44v89" id="aA"/><path fill="#3a414a" d="M85-194c31 0 48 13 60 33l-1-100h32l1 261h-30c-2-10 0-23-3-31C134-8 116 4 85 4 32 4 16-35 15-94c0-66 23-100 70-100zm9 24c-40 0-46 34-46 75 0 40 6 74 45 74 42 0 51-32 51-76 0-42-9-74-50-73" id="aB"/><g id="e"><use transform="matrix(0.049382716049382706,0,0,0.049382716049382706,0,0)" xlink:href="#aA"/><use transform="matrix(0.049382716049382706,0,0,0.049382716049382706,11.85185185185185,0)" xlink:href="#ai"/><use transform="matrix(0.049382716049382706,0,0,0.049382716049382706,21.728395061728392,0)" xlink:href="#aB"/><use transform="matrix(0.049382716049382706,0,0,0.049382716049382706,31.604938271604933,0)" xlink:href="#ac"/></g><path fill="#3a414a" d="M9 0v-24l116-142H16v-24h144v24L44-24h123V0H9" id="aC"/><g id="f"><use transform="matrix(0.049382716049382706,0,0,0.049382716049382706,0,0)" xlink:href="#an"/><use transform="matrix(0.049382716049382706,0,0,0.049382716049382706,8.888888888888888,0)" xlink:href="#am"/><use transform="matrix(0.049382716049382706,0,0,0.049382716049382706,12.790123456790122,0)" xlink:href="#aC"/><use transform="matrix(0.049382716049382706,0,0,0.049382716049382706,21.67901234567901,0)" xlink:href="#ak"/></g><path fill="#3a414a" d="M127-220V0H93v-220H8v-28h204v28h-85" id="aD"/><path fill="#3a414a" d="M24 0v-261h32V0H24" id="aE"/><g id="g"><use transform="matrix(0.049382716049382706,0,0,0.049382716049382706,0,0)" xlink:href="#aD"/><use transform="matrix(0.049382716049382706,0,0,0.049382716049382706,8.839506172839505,0)" xlink:href="#ae"/><use transform="matrix(0.049382716049382706,0,0,0.049382716049382706,18.716049382716044,0)" xlink:href="#am"/><use transform="matrix(0.049382716049382706,0,0,0.049382716049382706,22.617283950617278,0)" xlink:href="#aE"/></g><path fill="#3a414a" d="M177-190C167-65 218 103 67 71c-23-6-38-20-44-43l32-5c15 47 100 32 89-28v-30C133-14 115 1 83 1 29 1 15-40 15-95c0-56 16-97 71-98 29-1 48 16 59 35 1-10 0-23 2-32h30zM94-22c36 0 50-32 50-73 0-42-14-75-50-75-39 0-46 34-46 75s6 73 46 73" id="aF"/><g id="h"><use transform="matrix(0.049382716049382706,0,0,0.049382716049382706,0,0)" xlink:href="#aE"/><use transform="matrix(0.049382716049382706,0,0,0.049382716049382706,3.9012345679012337,0)" xlink:href="#ak"/><use transform="matrix(0.049382716049382706,0,0,0.049382716049382706,13.777777777777775,0)" xlink:href="#ad"/><use transform="matrix(0.049382716049382706,0,0,0.049382716049382706,23.654320987654316,0)" xlink:href="#aF"/><use transform="matrix(0.049382716049382706,0,0,0.049382716049382706,33.53086419753086,0)" xlink:href="#af"/><use transform="matrix(0.049382716049382706,0,0,0.049382716049382706,38.46913580246913,0)" xlink:href="#ag"/></g><path fill="#3a414a" d="M212-179c-10-28-35-45-73-45-59 0-87 40-87 99 0 60 29 101 89 101 43 0 62-24 78-52l27 14C228-24 195 4 139 4 59 4 22-46 18-125c-6-104 99-153 187-111 19 9 31 26 39 46" id="aG"/><g id="i"><use transform="matrix(0.049382716049382706,0,0,0.049382716049382706,0,0)" xlink:href="#aG"/><use transform="matrix(0.049382716049382706,0,0,0.049382716049382706,12.790123456790122,0)" xlink:href="#ah"/><use transform="matrix(0.049382716049382706,0,0,0.049382716049382706,18.666666666666664,0)" xlink:href="#ae"/><use transform="matrix(0.049382716049382706,0,0,0.049382716049382706,28.543209876543205,0)" xlink:href="#ad"/><use transform="matrix(0.049382716049382706,0,0,0.049382716049382706,38.419753086419746,0)" xlink:href="#am"/><use transform="matrix(0.049382716049382706,0,0,0.049382716049382706,42.32098765432098,0)" xlink:href="#ae"/><use transform="matrix(0.049382716049382706,0,0,0.049382716049382706,52.19753086419752,0)" xlink:href="#aE"/></g><path fill="#3a414a" d="M210-169c-67 3-38 105-44 169h-31v-121c0-29-5-50-35-48C34-165 62-65 56 0H25l-1-190h30c1 10-1 24 2 32 10-44 99-50 107 0 11-21 27-35 58-36 85-2 47 119 55 194h-31v-121c0-29-5-49-35-48" id="aH"/><g id="j"><use transform="matrix(0.049382716049382706,0,0,0.049382716049382706,0,0)" xlink:href="#aH"/><use transform="matrix(0.049382716049382706,0,0,0.049382716049382706,14.765432098765428,0)" xlink:href="#ai"/><use transform="matrix(0.049382716049382706,0,0,0.049382716049382706,24.641975308641968,0)" xlink:href="#ah"/><use transform="matrix(0.049382716049382706,0,0,0.049382716049382706,30.51851851851851,0)" xlink:href="#aj"/><use transform="matrix(0.049382716049382706,0,0,0.049382716049382706,40.39506172839505,0)" xlink:href="#ag"/><use transform="matrix(0.049382716049382706,0,0,0.049382716049382706,50.271604938271594,0)" xlink:href="#ai"/><use transform="matrix(0.049382716049382706,0,0,0.049382716049382706,60.14814814814814,0)" xlink:href="#aE"/><use transform="matrix(0.049382716049382706,0,0,0.049382716049382706,64.04938271604937,0)" xlink:href="#ai"/><use transform="matrix(0.049382716049382706,0,0,0.049382716049382706,73.92592592592591,0)" xlink:href="#aF"/><use transform="matrix(0.049382716049382706,0,0,0.049382716049382706,83.80246913580245,0)" xlink:href="#ac"/></g><path fill="#333" d="M24 0v-248h195v40H76v63h132v40H76v65h150V0H24" id="aI"/><g id="k"><use transform="matrix(0.04938271604938272,0,0,0.04938271604938272,0,0)" xlink:href="#aI"/><use transform="matrix(0.04938271604938272,0,0,0.04938271604938272,11.851851851851853,0)" xlink:href="#aw"/><use transform="matrix(0.04938271604938272,0,0,0.04938271604938272,21.7283950617284,0)" xlink:href="#ap"/><use transform="matrix(0.04938271604938272,0,0,0.04938271604938272,32.543209876543216,0)" xlink:href="#at"/><use transform="matrix(0.04938271604938272,0,0,0.04938271604938272,37.48148148148149,0)" xlink:href="#ap"/><use transform="matrix(0.04938271604938272,0,0,0.04938271604938272,48.296296296296305,0)" xlink:href="#au"/><use transform="matrix(0.04938271604938272,0,0,0.04938271604938272,59.111111111111114,0)" xlink:href="#av"/><use transform="matrix(0.04938271604938272,0,0,0.04938271604938272,64.0493827160494,0)" xlink:href="#aw"/><use transform="matrix(0.04938271604938272,0,0,0.04938271604938272,73.92592592592594,0)" xlink:href="#ax"/><use transform="matrix(0.04938271604938272,0,0,0.04938271604938272,83.80246913580248,0)" xlink:href="#at"/></g><path fill="#333" d="M182-130c37 4 62 22 62 59C244 23 116-4 24 0v-248c84 5 203-23 205 63 0 31-19 50-47 55zM76-148c40-3 101 13 101-30 0-44-60-28-101-31v61zm0 110c48-3 116 14 116-37 0-48-69-32-116-35v72" id="aJ"/><path fill="#333" d="M185-48c-13 30-37 53-82 52C43 2 14-33 14-96s30-98 90-98c62 0 83 45 84 108H66c0 31 8 55 39 56 18 0 30-7 34-22zm-45-69c5-46-57-63-70-21-2 6-4 13-4 21h74" id="aK"/><path fill="#333" d="M128 0H69L1-190h53L99-40l48-150h52" id="aL"/><path fill="#333" d="M85 4C-2 5 27-109 22-190h50c7 57-23 150 33 157 60-5 35-97 40-157h50l1 190h-47c-2-12 1-28-3-38-12 25-28 42-61 42" id="aM"/><g id="l"><use transform="matrix(0.04938271604938272,0,0,0.04938271604938272,0,0)" xlink:href="#aJ"/><use transform="matrix(0.04938271604938272,0,0,0.04938271604938272,12.790123456790125,0)" xlink:href="#aK"/><use transform="matrix(0.04938271604938272,0,0,0.04938271604938272,22.66666666666667,0)" xlink:href="#as"/><use transform="matrix(0.04938271604938272,0,0,0.04938271604938272,33.48148148148149,0)" xlink:href="#ax"/><use transform="matrix(0.04938271604938272,0,0,0.04938271604938272,43.35802469135803,0)" xlink:href="#aL"/><use transform="matrix(0.04938271604938272,0,0,0.04938271604938272,53.23456790123457,0)" xlink:href="#av"/><use transform="matrix(0.04938271604938272,0,0,0.04938271604938272,58.17283950617284,0)" xlink:href="#ap"/><use transform="matrix(0.04938271604938272,0,0,0.04938271604938272,68.98765432098766,0)" xlink:href="#aM"/><use transform="matrix(0.04938271604938272,0,0,0.04938271604938272,79.80246913580247,0)" xlink:href="#aq"/><use transform="matrix(0.04938271604938272,0,0,0.04938271604938272,86.71604938271605,0)" xlink:href="#ax"/><use transform="matrix(0.04938271604938272,0,0,0.04938271604938272,96.5925925925926,0)" xlink:href="#at"/></g><path fill="#333" d="M24 0v-248h52v208h133V0H24" id="aN"/><path fill="#333" d="M121-226c-27-7-43 5-38 36h38v33H83V0H34v-157H6v-33h28c-9-59 32-81 87-68v32" id="aO"/><g id="m"><use transform="matrix(0.04938271604938272,0,0,0.04938271604938272,0,0)" xlink:href="#aN"/><use transform="matrix(0.04938271604938272,0,0,0.04938271604938272,10.814814814814815,0)" xlink:href="#av"/><use transform="matrix(0.04938271604938272,0,0,0.04938271604938272,15.753086419753087,0)" xlink:href="#aO"/><use transform="matrix(0.04938271604938272,0,0,0.04938271604938272,21.62962962962963,0)" xlink:href="#aK"/></g><path fill="#333" d="M123 10C108 53 80 86 19 72V37c35 8 53-11 59-39L3-190h52l48 148c12-52 28-100 44-148h51" id="aP"/><g id="n"><use transform="matrix(0.04938271604938272,0,0,0.04938271604938272,0,0)" xlink:href="#as"/><use transform="matrix(0.04938271604938272,0,0,0.04938271604938272,10.814814814814815,0)" xlink:href="#av"/><use transform="matrix(0.04938271604938272,0,0,0.04938271604938272,15.753086419753087,0)" xlink:href="#az"/><use transform="matrix(0.04938271604938272,0,0,0.04938271604938272,25.629629629629633,0)" xlink:href="#ay"/><use transform="matrix(0.04938271604938272,0,0,0.04938271604938272,31.506172839506174,0)" xlink:href="#ap"/><use transform="matrix(0.04938271604938272,0,0,0.04938271604938272,42.320987654320994,0)" xlink:href="#aq"/><use transform="matrix(0.04938271604938272,0,0,0.04938271604938272,49.23456790123458,0)" xlink:href="#aP"/></g><g id="o"><use transform="matrix(0.04938271604938272,0,0,0.04938271604938272,0,0)" xlink:href="#ay"/><use transform="matrix(0.04938271604938272,0,0,0.04938271604938272,5.8765432098765435,0)" xlink:href="#aq"/><use transform="matrix(0.04938271604938272,0,0,0.04938271604938272,12.790123456790125,0)" xlink:href="#ax"/><use transform="matrix(0.04938271604938272,0,0,0.04938271604938272,22.666666666666668,0)" xlink:href="#av"/><use transform="matrix(0.04938271604938272,0,0,0.04938271604938272,27.60493827160494,0)" xlink:href="#ay"/><use transform="matrix(0.04938271604938272,0,0,0.04938271604938272,33.48148148148148,0)" xlink:href="#az"/></g><path fill="#333" d="M24-248c93 1 206-16 204 79-1 75-69 88-152 82V0H24v-248zm52 121c47 0 100 7 100-41 0-47-54-39-100-39v80" id="aQ"/><g id="p"><use transform="matrix(0.04938271604938272,0,0,0.04938271604938272,0,0)" xlink:href="#aQ"/><use transform="matrix(0.04938271604938272,0,0,0.04938271604938272,11.851851851851853,0)" xlink:href="#as"/><use transform="matrix(0.04938271604938272,0,0,0.04938271604938272,22.666666666666668,0)" xlink:href="#aP"/><use transform="matrix(0.04938271604938272,0,0,0.04938271604938272,32.543209876543216,0)" xlink:href="#az"/><use transform="matrix(0.04938271604938272,0,0,0.04938271604938272,42.41975308641976,0)" xlink:href="#av"/><use transform="matrix(0.04938271604938272,0,0,0.04938271604938272,47.35802469135803,0)" xlink:href="#ap"/><use transform="matrix(0.04938271604938272,0,0,0.04938271604938272,58.17283950617284,0)" xlink:href="#at"/><use transform="matrix(0.04938271604938272,0,0,0.04938271604938272,63.111111111111114,0)" xlink:href="#ap"/><use transform="matrix(0.04938271604938272,0,0,0.04938271604938272,73.92592592592594,0)" xlink:href="#au"/><use transform="matrix(0.04938271604938272,0,0,0.04938271604938272,84.74074074074075,0)" xlink:href="#av"/><use transform="matrix(0.04938271604938272,0,0,0.04938271604938272,89.67901234567901,0)" xlink:href="#aw"/><use transform="matrix(0.04938271604938272,0,0,0.04938271604938272,99.55555555555556,0)" xlink:href="#ax"/><use transform="matrix(0.04938271604938272,0,0,0.04938271604938272,109.4320987654321,0)" xlink:href="#at"/></g><path fill="#333" d="M186 0v-106H76V0H24v-248h52v99h110v-99h50V0h-50" id="aR"/><path fill="#333" d="M220-157c-53 9-28 100-34 157h-49v-107c1-27-5-49-29-50C55-147 81-57 75 0H25l-1-190h47c2 12-1 28 3 38 10-53 101-56 108 0 13-22 24-43 59-42 82 1 51 116 57 194h-49v-107c-1-25-5-48-29-50" id="aS"/><path fill="#333" d="M135-194c87-1 58 113 63 194h-50c-7-57 23-157-34-157-59 0-34 97-39 157H25l-1-190h47c2 12-1 28 3 38 12-26 28-41 61-42" id="aT"/><path fill="#333" d="M14-72v-43h91v43H14" id="aU"/><path fill="#333" d="M88-194c31-1 46 15 58 34l-1-101h50l1 261h-48c-2-10 0-23-3-31C134-8 116 4 84 4 32 4 16-41 15-95c0-56 19-97 73-99zm17 164c33 0 40-30 41-66 1-37-9-64-41-64s-38 30-39 65c0 43 13 65 39 65" id="aV"/><g id="q"><use transform="matrix(0.04938271604938272,0,0,0.04938271604938272,0,0)" xlink:href="#aR"/><use transform="matrix(0.04938271604938272,0,0,0.04938271604938272,12.790123456790125,0)" xlink:href="#aM"/><use transform="matrix(0.04938271604938272,0,0,0.04938271604938272,23.60493827160494,0)" xlink:href="#aS"/><use transform="matrix(0.04938271604938272,0,0,0.04938271604938272,39.40740740740741,0)" xlink:href="#ax"/><use transform="matrix(0.04938271604938272,0,0,0.04938271604938272,49.283950617283956,0)" xlink:href="#aT"/><use transform="matrix(0.04938271604938272,0,0,0.04938271604938272,60.09876543209877,0)" xlink:href="#aU"/><use transform="matrix(0.04938271604938272,0,0,0.04938271604938272,65.97530864197532,0)" xlink:href="#ax"/><use transform="matrix(0.04938271604938272,0,0,0.04938271604938272,75.85185185185186,0)" xlink:href="#az"/><use transform="matrix(0.04938271604938272,0,0,0.04938271604938272,85.7283950617284,0)" xlink:href="#az"/><use transform="matrix(0.04938271604938272,0,0,0.04938271604938272,95.60493827160495,0)" xlink:href="#ap"/><use transform="matrix(0.04938271604938272,0,0,0.04938271604938272,106.41975308641976,0)" xlink:href="#aw"/><use transform="matrix(0.04938271604938272,0,0,0.04938271604938272,116.2962962962963,0)" xlink:href="#av"/><use transform="matrix(0.04938271604938272,0,0,0.04938271604938272,121.23456790123458,0)" xlink:href="#ax"/><use transform="matrix(0.04938271604938272,0,0,0.04938271604938272,131.11111111111114,0)" xlink:href="#ay"/><use transform="matrix(0.04938271604938272,0,0,0.04938271604938272,136.98765432098767,0)" xlink:href="#aK"/><use transform="matrix(0.04938271604938272,0,0,0.04938271604938272,146.8641975308642,0)" xlink:href="#aV"/></g><path fill="#333" d="M67-125c0 54 23 88 75 88 28 0 53-7 68-21v-34h-60v-39h108v91C232-14 192 4 140 4 58 4 20-42 15-125 8-236 126-280 215-234c19 10 29 26 37 47l-47 15c-11-23-29-39-63-39-53 1-75 33-75 86" id="aW"/><g id="r"><use transform="matrix(0.04938271604938272,0,0,0.04938271604938272,0,0)" xlink:href="#aW"/><use transform="matrix(0.04938271604938272,0,0,0.04938271604938272,13.827160493827162,0)" xlink:href="#aK"/><use transform="matrix(0.04938271604938272,0,0,0.04938271604938272,23.703703703703706,0)" xlink:href="#ap"/><use transform="matrix(0.04938271604938272,0,0,0.04938271604938272,34.51851851851852,0)" xlink:href="#au"/><use transform="matrix(0.04938271604938272,0,0,0.04938271604938272,45.333333333333336,0)" xlink:href="#aq"/><use transform="matrix(0.04938271604938272,0,0,0.04938271604938272,52.24691358024692,0)" xlink:href="#ax"/><use transform="matrix(0.04938271604938272,0,0,0.04938271604938272,62.12345679012346,0)" xlink:href="#ar"/><use transform="matrix(0.04938271604938272,0,0,0.04938271604938272,72.93827160493828,0)" xlink:href="#as"/><use transform="matrix(0.04938271604938272,0,0,0.04938271604938272,83.75308641975309,0)" xlink:href="#av"/><use transform="matrix(0.04938271604938272,0,0,0.04938271604938272,88.69135802469137,0)" xlink:href="#aw"/></g><path fill="#333" d="M67-93c0 74 22 123 53 168H70C40 30 18-18 18-93s22-123 52-168h50c-32 44-53 94-53 168" id="aX"/><path fill="#333" d="M4 7l51-268h42L46 7H4" id="aY"/><path fill="#333" d="M240-174c0 40-23 61-54 70L253 0h-59l-57-94H76V0H24v-248c93 4 217-23 216 74zM76-134c48-2 112 12 112-38 0-48-66-32-112-35v73" id="aZ"/><path fill="#333" d="M102-93c0 74-22 123-52 168H0C30 29 54-18 53-93c0-74-22-123-53-168h50c30 45 52 94 52 168" id="ba"/><g id="s"><use transform="matrix(0.04938271604938272,0,0,0.04938271604938272,0,0)" xlink:href="#aX"/><use transform="matrix(0.04938271604938272,0,0,0.04938271604938272,5.8765432098765435,0)" xlink:href="#aJ"/><use transform="matrix(0.04938271604938272,0,0,0.04938271604938272,18.666666666666668,0)" xlink:href="#av"/><use transform="matrix(0.04938271604938272,0,0,0.04938271604938272,23.60493827160494,0)" xlink:href="#ap"/><use transform="matrix(0.04938271604938272,0,0,0.04938271604938272,34.41975308641975,0)" xlink:href="#aS"/><use transform="matrix(0.04938271604938272,0,0,0.04938271604938272,50.22222222222222,0)" xlink:href="#aK"/><use transform="matrix(0.04938271604938272,0,0,0.04938271604938272,60.09876543209877,0)" xlink:href="#aY"/><use transform="matrix(0.04938271604938272,0,0,0.04938271604938272,65.03703703703704,0)" xlink:href="#aZ"/><use transform="matrix(0.04938271604938272,0,0,0.04938271604938272,77.82716049382717,0)" xlink:href="#ax"/><use transform="matrix(0.04938271604938272,0,0,0.04938271604938272,87.70370370370371,0)" xlink:href="#aT"/><use transform="matrix(0.04938271604938272,0,0,0.04938271604938272,98.51851851851852,0)" xlink:href="#au"/><use transform="matrix(0.04938271604938272,0,0,0.04938271604938272,109.33333333333331,0)" xlink:href="#aK"/><use transform="matrix(0.04938271604938272,0,0,0.04938271604938272,119.20987654320986,0)" xlink:href="#ba"/></g><g id="t"><use transform="matrix(0.04938271604938272,0,0,0.04938271604938272,0,0)" xlink:href="#aW"/><use transform="matrix(0.04938271604938272,0,0,0.04938271604938272,13.827160493827162,0)" xlink:href="#aK"/><use transform="matrix(0.04938271604938272,0,0,0.04938271604938272,23.703703703703706,0)" xlink:href="#aT"/><use transform="matrix(0.04938271604938272,0,0,0.04938271604938272,34.51851851851852,0)" xlink:href="#aK"/><use transform="matrix(0.04938271604938272,0,0,0.04938271604938272,44.39506172839506,0)" xlink:href="#ay"/><use transform="matrix(0.04938271604938272,0,0,0.04938271604938272,50.27160493827161,0)" xlink:href="#av"/><use transform="matrix(0.04938271604938272,0,0,0.04938271604938272,55.20987654320988,0)" xlink:href="#aw"/></g><path fill="#333" d="M67-125c0 53 21 87 73 88 37 1 54-22 65-47l45 17C233-25 199 4 140 4 58 4 20-42 15-125 8-235 124-281 211-232c18 10 29 29 36 50l-46 12c-8-25-30-41-62-41-52 0-71 34-72 86" id="bb"/><g id="u"><use transform="matrix(0.04938271604938272,0,0,0.04938271604938272,0,0)" xlink:href="#bb"/><use transform="matrix(0.04938271604938272,0,0,0.04938271604938272,12.790123456790125,0)" xlink:href="#at"/><use transform="matrix(0.04938271604938272,0,0,0.04938271604938272,17.7283950617284,0)" xlink:href="#av"/><use transform="matrix(0.04938271604938272,0,0,0.04938271604938272,22.66666666666667,0)" xlink:href="#aS"/><use transform="matrix(0.04938271604938272,0,0,0.04938271604938272,38.46913580246914,0)" xlink:href="#ax"/><use transform="matrix(0.04938271604938272,0,0,0.04938271604938272,48.345679012345684,0)" xlink:href="#ay"/><use transform="matrix(0.04938271604938272,0,0,0.04938271604938272,54.22222222222223,0)" xlink:href="#aK"/></g><path fill="#3a414a" d="M33 0v-38h34V0H33" id="bc"/><g id="v"><use transform="matrix(0.049382716049382706,0,0,0.049382716049382706,0,0)" xlink:href="#bc"/><use transform="matrix(0.049382716049382706,0,0,0.049382716049382706,4.93827160493827,0)" xlink:href="#bc"/><use transform="matrix(0.049382716049382706,0,0,0.049382716049382706,9.87654320987654,0)" xlink:href="#bc"/></g><path fill="#3a414a" d="M30-248c118-7 216 8 213 122C240-48 200 0 122 0H30v-248zM63-27c89 8 146-16 146-99s-60-101-146-95v194" id="bd"/><g id="w"><use transform="matrix(0.049382716049382706,0,0,0.049382716049382706,0,0)" xlink:href="#bd"/><use transform="matrix(0.049382716049382706,0,0,0.049382716049382706,12.790123456790122,0)" xlink:href="#am"/><use transform="matrix(0.049382716049382706,0,0,0.049382716049382706,16.691358024691354,0)" xlink:href="#ak"/><use transform="matrix(0.049382716049382706,0,0,0.049382716049382706,26.567901234567895,0)" xlink:href="#af"/></g><path fill="#3a414a" d="M197 0v-115H63V0H30v-248h33v105h134v-105h34V0h-34" id="be"/><path fill="#3a414a" d="M115-194c53 0 69 39 70 98 0 66-23 100-70 100C84 3 66-7 56-30L54 0H23l1-261h32v101c10-23 28-34 59-34zm-8 174c40 0 45-34 45-75 0-40-5-75-45-74-42 0-51 32-51 76 0 43 10 73 51 73" id="bf"/><g id="x"><use transform="matrix(0.049382716049382706,0,0,0.049382716049382706,0,0)" xlink:href="#be"/><use transform="matrix(0.049382716049382706,0,0,0.049382716049382706,12.790123456790122,0)" xlink:href="#ae"/><use transform="matrix(0.049382716049382706,0,0,0.049382716049382706,22.666666666666664,0)" xlink:href="#bf"/><use transform="matrix(0.049382716049382706,0,0,0.049382716049382706,32.5432098765432,0)" xlink:href="#am"/><use transform="matrix(0.049382716049382706,0,0,0.049382716049382706,36.444444444444436,0)" xlink:href="#af"/><use transform="matrix(0.049382716049382706,0,0,0.049382716049382706,41.38271604938271,0)" xlink:href="#ae"/><use transform="matrix(0.049382716049382706,0,0,0.049382716049382706,51.25925925925925,0)" xlink:href="#af"/></g><path fill="#3a414a" d="M101-234c-31-9-42 10-38 44h38v23H63V0H32v-167H5v-23h27c-7-52 17-82 69-68v24" id="bg"/><g id="y"><use transform="matrix(0.049382716049382706,0,0,0.049382716049382706,0,0)" xlink:href="#aj"/><use transform="matrix(0.049382716049382706,0,0,0.049382716049382706,9.87654320987654,0)" xlink:href="#ah"/><use transform="matrix(0.049382716049382706,0,0,0.049382716049382706,15.75308641975308,0)" xlink:href="#ak"/><use transform="matrix(0.049382716049382706,0,0,0.049382716049382706,25.629629629629626,0)" xlink:href="#bg"/><use transform="matrix(0.049382716049382706,0,0,0.049382716049382706,30.56790123456789,0)" xlink:href="#ak"/><use transform="matrix(0.049382716049382706,0,0,0.049382716049382706,40.44444444444443,0)" xlink:href="#ah"/><use transform="matrix(0.049382716049382706,0,0,0.049382716049382706,46.32098765432097,0)" xlink:href="#ak"/><use transform="matrix(0.049382716049382706,0,0,0.049382716049382706,56.19753086419752,0)" xlink:href="#ad"/><use transform="matrix(0.049382716049382706,0,0,0.049382716049382706,66.07407407407406,0)" xlink:href="#al"/><use transform="matrix(0.049382716049382706,0,0,0.049382716049382706,74.96296296296295,0)" xlink:href="#ak"/></g><path fill="#3a414a" d="M190 0L58-211 59 0H30v-248h39L202-35l-2-213h31V0h-41" id="bh"/><g id="z"><use transform="matrix(0.049382716049382706,0,0,0.049382716049382706,0,0)" xlink:href="#bh"/><use transform="matrix(0.049382716049382706,0,0,0.049382716049382706,12.790123456790122,0)" xlink:href="#ak"/><use transform="matrix(0.049382716049382706,0,0,0.049382716049382706,22.666666666666664,0)" xlink:href="#an"/><use transform="matrix(0.049382716049382706,0,0,0.049382716049382706,31.55555555555555,0)" xlink:href="#af"/><use transform="matrix(0.049382716049382706,0,0,0.049382716049382706,36.49382716049382,0)" xlink:href="#am"/><use transform="matrix(0.049382716049382706,0,0,0.049382716049382706,40.395061728395056,0)" xlink:href="#ad"/><use transform="matrix(0.049382716049382706,0,0,0.049382716049382706,50.271604938271594,0)" xlink:href="#aF"/></g><g id="A"><use transform="matrix(0.049382716049382706,0,0,0.049382716049382706,0,0)" xlink:href="#ag"/><use transform="matrix(0.049382716049382706,0,0,0.049382716049382706,9.87654320987654,0)" xlink:href="#ae"/><use transform="matrix(0.049382716049382706,0,0,0.049382716049382706,19.75308641975308,0)" xlink:href="#bf"/><use transform="matrix(0.049382716049382706,0,0,0.049382716049382706,29.629629629629623,0)" xlink:href="#am"/><use transform="matrix(0.049382716049382706,0,0,0.049382716049382706,33.53086419753085,0)" xlink:href="#af"/><use transform="matrix(0.049382716049382706,0,0,0.049382716049382706,38.469135802469125,0)" xlink:href="#an"/></g><path fill="#3a414a" d="M205 0l-28-72H64L36 0H1l101-248h38L239 0h-34zm-38-99l-47-123c-12 45-31 82-46 123h93" id="bi"/><path fill="#3a414a" d="M108 0H70L1-190h34L89-25l56-165h34" id="bj"/><g id="B"><use transform="matrix(0.049382716049382706,0,0,0.049382716049382706,0,0)" xlink:href="#bi"/><use transform="matrix(0.049382716049382706,0,0,0.049382716049382706,11.85185185185185,0)" xlink:href="#aF"/><use transform="matrix(0.049382716049382706,0,0,0.049382716049382706,21.728395061728392,0)" xlink:href="#aF"/><use transform="matrix(0.049382716049382706,0,0,0.049382716049382706,31.604938271604933,0)" xlink:href="#ah"/><use transform="matrix(0.049382716049382706,0,0,0.049382716049382706,37.481481481481474,0)" xlink:href="#ak"/><use transform="matrix(0.049382716049382706,0,0,0.049382716049382706,47.35802469135801,0)" xlink:href="#an"/><use transform="matrix(0.049382716049382706,0,0,0.049382716049382706,56.24691358024689,0)" xlink:href="#an"/><use transform="matrix(0.049382716049382706,0,0,0.049382716049382706,65.13580246913578,0)" xlink:href="#am"/><use transform="matrix(0.049382716049382706,0,0,0.049382716049382706,69.03703703703701,0)" xlink:href="#bj"/><use transform="matrix(0.049382716049382706,0,0,0.049382716049382706,77.9259259259259,0)" xlink:href="#ak"/><use transform="matrix(0.049382716049382706,0,0,0.049382716049382706,87.80246913580244,0)" xlink:href="#ad"/><use transform="matrix(0.049382716049382706,0,0,0.049382716049382706,97.67901234567898,0)" xlink:href="#ak"/><use transform="matrix(0.049382716049382706,0,0,0.049382716049382706,107.55555555555553,0)" xlink:href="#an"/><use transform="matrix(0.049382716049382706,0,0,0.049382716049382706,116.44444444444443,0)" xlink:href="#an"/></g><g id="C"><use transform="matrix(0.049382716049382706,0,0,0.049382716049382706,0,0)" xlink:href="#ab"/><use transform="matrix(0.049382716049382706,0,0,0.049382716049382706,11.85185185185185,0)" xlink:href="#ai"/><use transform="matrix(0.049382716049382706,0,0,0.049382716049382706,21.728395061728392,0)" xlink:href="#al"/><use transform="matrix(0.049382716049382706,0,0,0.049382716049382706,30.617283950617278,0)" xlink:href="#am"/><use transform="matrix(0.049382716049382706,0,0,0.049382716049382706,34.51851851851851,0)" xlink:href="#ae"/><use transform="matrix(0.049382716049382706,0,0,0.049382716049382706,44.39506172839505,0)" xlink:href="#aE"/></g><path fill="#3a414a" d="M84 4C-5 8 30-112 23-190h32v120c0 31 7 50 39 49 72-2 45-101 50-169h31l1 190h-30c-1-10 1-25-2-33-11 22-28 36-60 37" id="bk"/><g id="D"><use transform="matrix(0.049382716049382706,0,0,0.049382716049382706,0,0)" xlink:href="#an"/><use transform="matrix(0.049382716049382706,0,0,0.049382716049382706,8.888888888888888,0)" xlink:href="#af"/><use transform="matrix(0.049382716049382706,0,0,0.049382716049382706,13.827160493827158,0)" xlink:href="#ah"/><use transform="matrix(0.049382716049382706,0,0,0.049382716049382706,19.7037037037037,0)" xlink:href="#bk"/><use transform="matrix(0.049382716049382706,0,0,0.049382716049382706,29.58024691358024,0)" xlink:href="#al"/><use transform="matrix(0.049382716049382706,0,0,0.049382716049382706,38.469135802469125,0)" xlink:href="#af"/><use transform="matrix(0.049382716049382706,0,0,0.049382716049382706,43.4074074074074,0)" xlink:href="#bk"/><use transform="matrix(0.049382716049382706,0,0,0.049382716049382706,53.28395061728394,0)" xlink:href="#ah"/><use transform="matrix(0.049382716049382706,0,0,0.049382716049382706,59.16049382716048,0)" xlink:href="#ak"/></g><g id="E"><use transform="matrix(0.049382716049382706,0,0,0.049382716049382706,0,0)" xlink:href="#bi"/><use transform="matrix(0.049382716049382706,0,0,0.049382716049382706,11.85185185185185,0)" xlink:href="#al"/><use transform="matrix(0.049382716049382706,0,0,0.049382716049382706,20.740740740740737,0)" xlink:href="#af"/><use transform="matrix(0.049382716049382706,0,0,0.049382716049382706,25.679012345679006,0)" xlink:href="#am"/><use transform="matrix(0.049382716049382706,0,0,0.049382716049382706,29.58024691358024,0)" xlink:href="#bj"/><use transform="matrix(0.049382716049382706,0,0,0.049382716049382706,38.469135802469125,0)" xlink:href="#am"/><use transform="matrix(0.049382716049382706,0,0,0.049382716049382706,42.37037037037036,0)" xlink:href="#af"/><use transform="matrix(0.049382716049382706,0,0,0.049382716049382706,47.30864197530863,0)" xlink:href="#ac"/></g><g id="F"><use transform="matrix(0.049382716049382706,0,0,0.049382716049382706,0,0)" xlink:href="#aj"/><use transform="matrix(0.049382716049382706,0,0,0.049382716049382706,9.87654320987654,0)" xlink:href="#ae"/><use transform="matrix(0.049382716049382706,0,0,0.049382716049382706,19.75308641975308,0)" xlink:href="#af"/><use transform="matrix(0.049382716049382706,0,0,0.049382716049382706,24.691358024691354,0)" xlink:href="#af"/><use transform="matrix(0.049382716049382706,0,0,0.049382716049382706,29.629629629629623,0)" xlink:href="#ak"/><use transform="matrix(0.049382716049382706,0,0,0.049382716049382706,39.50617283950616,0)" xlink:href="#ah"/><use transform="matrix(0.049382716049382706,0,0,0.049382716049382706,45.38271604938271,0)" xlink:href="#ad"/><use transform="matrix(0.049382716049382706,0,0,0.049382716049382706,55.259259259259245,0)" xlink:href="#an"/></g><path fill="#3a414a" d="M233-177c-1 41-23 64-60 70L243 0h-38l-65-103H63V0H30v-248c88 3 205-21 203 71zM63-129c60-2 137 13 137-47 0-61-80-42-137-45v92" id="bl"/><g id="G"><use transform="matrix(0.049382716049382706,0,0,0.049382716049382706,0,0)" xlink:href="#bl"/><use transform="matrix(0.049382716049382706,0,0,0.049382716049382706,12.790123456790122,0)" xlink:href="#ak"/><use transform="matrix(0.049382716049382706,0,0,0.049382716049382706,22.666666666666664,0)" xlink:href="#aj"/><use transform="matrix(0.049382716049382706,0,0,0.049382716049382706,32.5432098765432,0)" xlink:href="#ah"/><use transform="matrix(0.049382716049382706,0,0,0.049382716049382706,38.419753086419746,0)" xlink:href="#ai"/><use transform="matrix(0.049382716049382706,0,0,0.049382716049382706,48.29629629629629,0)" xlink:href="#aB"/><use transform="matrix(0.049382716049382706,0,0,0.049382716049382706,58.17283950617284,0)" xlink:href="#bk"/><use transform="matrix(0.049382716049382706,0,0,0.049382716049382706,68.04938271604938,0)" xlink:href="#al"/><use transform="matrix(0.049382716049382706,0,0,0.049382716049382706,76.93827160493827,0)" xlink:href="#af"/><use transform="matrix(0.049382716049382706,0,0,0.049382716049382706,81.87654320987653,0)" xlink:href="#am"/><use transform="matrix(0.049382716049382706,0,0,0.049382716049382706,85.77777777777776,0)" xlink:href="#bj"/><use transform="matrix(0.049382716049382706,0,0,0.049382716049382706,94.66666666666664,0)" xlink:href="#ak"/></g><g id="H"><use transform="matrix(0.049382716049382706,0,0,0.049382716049382706,0,0)" xlink:href="#ah"/><use transform="matrix(0.049382716049382706,0,0,0.049382716049382706,5.876543209876542,0)" xlink:href="#ae"/><use transform="matrix(0.049382716049382706,0,0,0.049382716049382706,15.75308641975308,0)" xlink:href="#af"/><use transform="matrix(0.049382716049382706,0,0,0.049382716049382706,20.691358024691354,0)" xlink:href="#ak"/></g><path fill="#3a414a" d="M30 0v-248h33v221h125V0H30" id="bm"/><g id="I"><use transform="matrix(0.049382716049382706,0,0,0.049382716049382706,0,0)" xlink:href="#bm"/><use transform="matrix(0.049382716049382706,0,0,0.049382716049382706,9.87654320987654,0)" xlink:href="#ai"/><use transform="matrix(0.049382716049382706,0,0,0.049382716049382706,19.75308641975308,0)" xlink:href="#ad"/><use transform="matrix(0.049382716049382706,0,0,0.049382716049382706,29.629629629629623,0)" xlink:href="#aF"/><use transform="matrix(0.049382716049382706,0,0,0.049382716049382706,39.50617283950616,0)" xlink:href="#ak"/><use transform="matrix(0.049382716049382706,0,0,0.049382716049382706,49.38271604938271,0)" xlink:href="#bj"/><use transform="matrix(0.049382716049382706,0,0,0.049382716049382706,58.271604938271594,0)" xlink:href="#am"/><use transform="matrix(0.049382716049382706,0,0,0.049382716049382706,62.17283950617283,0)" xlink:href="#af"/><use transform="matrix(0.049382716049382706,0,0,0.049382716049382706,67.1111111111111,0)" xlink:href="#ac"/></g><g id="J"><use transform="matrix(0.049382716049382706,0,0,0.049382716049382706,0,0)" xlink:href="#bd"/><use transform="matrix(0.049382716049382706,0,0,0.049382716049382706,12.790123456790122,0)" xlink:href="#am"/><use transform="matrix(0.049382716049382706,0,0,0.049382716049382706,16.691358024691354,0)" xlink:href="#an"/><use transform="matrix(0.049382716049382706,0,0,0.049382716049382706,25.580246913580243,0)" xlink:href="#ak"/><use transform="matrix(0.049382716049382706,0,0,0.049382716049382706,35.456790123456784,0)" xlink:href="#ae"/><use transform="matrix(0.049382716049382706,0,0,0.049382716049382706,45.33333333333333,0)" xlink:href="#an"/><use transform="matrix(0.049382716049382706,0,0,0.049382716049382706,54.222222222222214,0)" xlink:href="#ak"/></g><g id="K"><use transform="matrix(0.049382716049382706,0,0,0.049382716049382706,0,0)" xlink:href="#ah"/><use transform="matrix(0.049382716049382706,0,0,0.049382716049382706,5.876543209876542,0)" xlink:href="#ak"/><use transform="matrix(0.049382716049382706,0,0,0.049382716049382706,15.75308641975308,0)" xlink:href="#an"/><use transform="matrix(0.049382716049382706,0,0,0.049382716049382706,24.641975308641968,0)" xlink:href="#am"/><use transform="matrix(0.049382716049382706,0,0,0.049382716049382706,28.543209876543205,0)" xlink:href="#an"/><use transform="matrix(0.049382716049382706,0,0,0.049382716049382706,37.43209876543209,0)" xlink:href="#af"/><use transform="matrix(0.049382716049382706,0,0,0.049382716049382706,42.37037037037036,0)" xlink:href="#ae"/><use transform="matrix(0.049382716049382706,0,0,0.049382716049382706,52.24691358024689,0)" xlink:href="#ad"/><use transform="matrix(0.049382716049382706,0,0,0.049382716049382706,62.12345679012344,0)" xlink:href="#al"/><use transform="matrix(0.049382716049382706,0,0,0.049382716049382706,71.01234567901233,0)" xlink:href="#ak"/></g><g id="L"><use transform="matrix(0.049382716049382706,0,0,0.049382716049382706,0,0)" xlink:href="#aD"/><use transform="matrix(0.049382716049382706,0,0,0.049382716049382706,10.814814814814813,0)" xlink:href="#ag"/><use transform="matrix(0.049382716049382706,0,0,0.049382716049382706,20.691358024691354,0)" xlink:href="#ak"/><use transform="matrix(0.049382716049382706,0,0,0.049382716049382706,30.567901234567895,0)" xlink:href="#ah"/><use transform="matrix(0.049382716049382706,0,0,0.049382716049382706,36.444444444444436,0)" xlink:href="#aH"/><use transform="matrix(0.049382716049382706,0,0,0.049382716049382706,51.209876543209866,0)" xlink:href="#ai"/><use transform="matrix(0.049382716049382706,0,0,0.049382716049382706,61.08641975308641,0)" xlink:href="#ah"/><use transform="matrix(0.049382716049382706,0,0,0.049382716049382706,66.96296296296295,0)" xlink:href="#ak"/><use transform="matrix(0.049382716049382706,0,0,0.049382716049382706,76.83950617283949,0)" xlink:href="#aF"/><use transform="matrix(0.049382716049382706,0,0,0.049382716049382706,86.71604938271604,0)" xlink:href="#bk"/><use transform="matrix(0.049382716049382706,0,0,0.049382716049382706,96.59259259259258,0)" xlink:href="#aE"/><use transform="matrix(0.049382716049382706,0,0,0.049382716049382706,100.49382716049381,0)" xlink:href="#ae"/><use transform="matrix(0.049382716049382706,0,0,0.049382716049382706,110.37037037037035,0)" xlink:href="#af"/><use transform="matrix(0.049382716049382706,0,0,0.049382716049382706,115.30864197530862,0)" xlink:href="#am"/><use transform="matrix(0.049382716049382706,0,0,0.049382716049382706,119.20987654320986,0)" xlink:href="#ai"/><use transform="matrix(0.049382716049382706,0,0,0.049382716049382706,129.08641975308637,0)" xlink:href="#ad"/></g><g id="M"><use transform="matrix(0.049382716049382706,0,0,0.049382716049382706,0,0)" xlink:href="#aD"/><use transform="matrix(0.049382716049382706,0,0,0.049382716049382706,8.839506172839505,0)" xlink:href="#ai"/><use transform="matrix(0.049382716049382706,0,0,0.049382716049382706,18.716049382716044,0)" xlink:href="#aE"/><use transform="matrix(0.049382716049382706,0,0,0.049382716049382706,22.617283950617278,0)" xlink:href="#ak"/><use transform="matrix(0.049382716049382706,0,0,0.049382716049382706,32.49382716049382,0)" xlink:href="#ah"/><use transform="matrix(0.049382716049382706,0,0,0.049382716049382706,38.37037037037037,0)" xlink:href="#ae"/><use transform="matrix(0.049382716049382706,0,0,0.049382716049382706,48.24691358024691,0)" xlink:href="#ad"/><use transform="matrix(0.049382716049382706,0,0,0.049382716049382706,58.123456790123456,0)" xlink:href="#al"/><use transform="matrix(0.049382716049382706,0,0,0.049382716049382706,67.01234567901234,0)" xlink:href="#ak"/></g><g id="N"><use transform="matrix(0.049382716049382706,0,0,0.049382716049382706,0,0)" xlink:href="#bi"/><use transform="matrix(0.049382716049382706,0,0,0.049382716049382706,11.85185185185185,0)" xlink:href="#ad"/><use transform="matrix(0.049382716049382706,0,0,0.049382716049382706,21.728395061728392,0)" xlink:href="#af"/><use transform="matrix(0.049382716049382706,0,0,0.049382716049382706,26.666666666666668,0)" xlink:href="#ag"/><use transform="matrix(0.049382716049382706,0,0,0.049382716049382706,36.5432098765432,0)" xlink:href="#ah"/><use transform="matrix(0.049382716049382706,0,0,0.049382716049382706,42.419753086419746,0)" xlink:href="#ai"/><use transform="matrix(0.049382716049382706,0,0,0.049382716049382706,52.29629629629628,0)" xlink:href="#aj"/><use transform="matrix(0.049382716049382706,0,0,0.049382716049382706,62.17283950617284,0)" xlink:href="#ai"/><use transform="matrix(0.049382716049382706,0,0,0.049382716049382706,72.04938271604938,0)" xlink:href="#aF"/><use transform="matrix(0.049382716049382706,0,0,0.049382716049382706,81.92592592592592,0)" xlink:href="#ak"/><use transform="matrix(0.049382716049382706,0,0,0.049382716049382706,91.80246913580247,0)" xlink:href="#ad"/><use transform="matrix(0.049382716049382706,0,0,0.049382716049382706,101.67901234567901,0)" xlink:href="#am"/><use transform="matrix(0.049382716049382706,0,0,0.049382716049382706,105.58024691358025,0)" xlink:href="#al"/></g><g id="O"><use transform="matrix(0.049382716049382706,0,0,0.049382716049382706,0,0)" xlink:href="#bg"/><use transform="matrix(0.049382716049382706,0,0,0.049382716049382706,4.93827160493827,0)" xlink:href="#ai"/><use transform="matrix(0.049382716049382706,0,0,0.049382716049382706,14.814814814814811,0)" xlink:href="#ai"/><use transform="matrix(0.049382716049382706,0,0,0.049382716049382706,24.691358024691354,0)" xlink:href="#aB"/></g><g id="P"><use transform="matrix(0.049382716049382706,0,0,0.049382716049382706,0,0)" xlink:href="#ae"/><use transform="matrix(0.049382716049382706,0,0,0.049382716049382706,9.87654320987654,0)" xlink:href="#bj"/><use transform="matrix(0.049382716049382706,0,0,0.049382716049382706,18.76543209876543,0)" xlink:href="#ae"/><use transform="matrix(0.049382716049382706,0,0,0.049382716049382706,28.64197530864197,0)" xlink:href="#am"/><use transform="matrix(0.049382716049382706,0,0,0.049382716049382706,32.5432098765432,0)" xlink:href="#aE"/><use transform="matrix(0.049382716049382706,0,0,0.049382716049382706,36.444444444444436,0)" xlink:href="#ae"/><use transform="matrix(0.049382716049382706,0,0,0.049382716049382706,46.32098765432097,0)" xlink:href="#bf"/><use transform="matrix(0.049382716049382706,0,0,0.049382716049382706,56.19753086419752,0)" xlink:href="#am"/><use transform="matrix(0.049382716049382706,0,0,0.049382716049382706,60.09876543209875,0)" xlink:href="#aE"/><use transform="matrix(0.049382716049382706,0,0,0.049382716049382706,63.999999999999986,0)" xlink:href="#am"/><use transform="matrix(0.049382716049382706,0,0,0.049382716049382706,67.90123456790121,0)" xlink:href="#af"/><use transform="matrix(0.049382716049382706,0,0,0.049382716049382706,72.83950617283948,0)" xlink:href="#ac"/></g><g id="Q"><use transform="matrix(0.049382716049382706,0,0,0.049382716049382706,0,0)" xlink:href="#be"/><use transform="matrix(0.049382716049382706,0,0,0.049382716049382706,12.790123456790122,0)" xlink:href="#bk"/><use transform="matrix(0.049382716049382706,0,0,0.049382716049382706,22.666666666666664,0)" xlink:href="#aH"/><use transform="matrix(0.049382716049382706,0,0,0.049382716049382706,37.432098765432094,0)" xlink:href="#ae"/><use transform="matrix(0.049382716049382706,0,0,0.049382716049382706,47.30864197530863,0)" xlink:href="#ad"/></g><g id="R"><use transform="matrix(0.049382716049382706,0,0,0.049382716049382706,0,0)" xlink:href="#aj"/><use transform="matrix(0.049382716049382706,0,0,0.049382716049382706,9.87654320987654,0)" xlink:href="#ai"/><use transform="matrix(0.049382716049382706,0,0,0.049382716049382706,19.75308641975308,0)" xlink:href="#aj"/><use transform="matrix(0.049382716049382706,0,0,0.049382716049382706,29.629629629629623,0)" xlink:href="#bk"/><use transform="matrix(0.049382716049382706,0,0,0.049382716049382706,39.50617283950616,0)" xlink:href="#aE"/><use transform="matrix(0.049382716049382706,0,0,0.049382716049382706,43.4074074074074,0)" xlink:href="#ae"/><use transform="matrix(0.049382716049382706,0,0,0.049382716049382706,53.28395061728394,0)" xlink:href="#af"/><use transform="matrix(0.049382716049382706,0,0,0.049382716049382706,58.222222222222214,0)" xlink:href="#am"/><use transform="matrix(0.049382716049382706,0,0,0.049382716049382706,62.12345679012344,0)" xlink:href="#ai"/><use transform="matrix(0.049382716049382706,0,0,0.049382716049382706,71.99999999999999,0)" xlink:href="#ad"/></g><g id="S"><use transform="matrix(0.049382716049382706,0,0,0.049382716049382706,0,0)" xlink:href="#aB"/><use transform="matrix(0.049382716049382706,0,0,0.049382716049382706,9.87654320987654,0)" xlink:href="#ak"/><use transform="matrix(0.049382716049382706,0,0,0.049382716049382706,19.75308641975308,0)" xlink:href="#ad"/><use transform="matrix(0.049382716049382706,0,0,0.049382716049382706,29.629629629629623,0)" xlink:href="#an"/><use transform="matrix(0.049382716049382706,0,0,0.049382716049382706,38.51851851851851,0)" xlink:href="#am"/><use transform="matrix(0.049382716049382706,0,0,0.049382716049382706,42.419753086419746,0)" xlink:href="#af"/><use transform="matrix(0.049382716049382706,0,0,0.049382716049382706,47.35802469135802,0)" xlink:href="#ac"/></g><path fill="#3a414a" d="M143 4C61 4 22-44 18-125c-5-107 100-154 193-111 17 8 29 25 37 43l-32 9c-13-25-37-40-76-40-61 0-88 39-88 99 0 61 29 100 91 101 35 0 62-11 79-27v-45h-74v-28h105v86C228-13 192 4 143 4" id="bn"/><g id="T"><use transform="matrix(0.049382716049382706,0,0,0.049382716049382706,0,0)" xlink:href="#bn"/><use transform="matrix(0.049382716049382706,0,0,0.049382716049382706,13.827160493827158,0)" xlink:href="#ak"/><use transform="matrix(0.049382716049382706,0,0,0.049382716049382706,23.7037037037037,0)" xlink:href="#ad"/><use transform="matrix(0.049382716049382706,0,0,0.049382716049382706,33.58024691358024,0)" xlink:href="#ak"/><use transform="matrix(0.049382716049382706,0,0,0.049382716049382706,43.456790123456784,0)" xlink:href="#af"/><use transform="matrix(0.049382716049382706,0,0,0.049382716049382706,48.395061728395056,0)" xlink:href="#am"/><use transform="matrix(0.049382716049382706,0,0,0.049382716049382706,52.29629629629628,0)" xlink:href="#al"/></g><g id="U"><use transform="matrix(0.049382716049382706,0,0,0.049382716049382706,0,0)" xlink:href="#aB"/><use transform="matrix(0.049382716049382706,0,0,0.049382716049382706,9.87654320987654,0)" xlink:href="#am"/><use transform="matrix(0.049382716049382706,0,0,0.049382716049382706,13.777777777777775,0)" xlink:href="#bj"/><use transform="matrix(0.049382716049382706,0,0,0.049382716049382706,22.666666666666664,0)" xlink:href="#ak"/><use transform="matrix(0.049382716049382706,0,0,0.049382716049382706,32.5432098765432,0)" xlink:href="#ah"/><use transform="matrix(0.049382716049382706,0,0,0.049382716049382706,38.419753086419746,0)" xlink:href="#an"/><use transform="matrix(0.049382716049382706,0,0,0.049382716049382706,47.30864197530863,0)" xlink:href="#am"/><use transform="matrix(0.049382716049382706,0,0,0.049382716049382706,51.209876543209866,0)" xlink:href="#af"/><use transform="matrix(0.049382716049382706,0,0,0.049382716049382706,56.14814814814814,0)" xlink:href="#ac"/></g><path fill="#3a414a" d="M206 0h-36l-40-164L89 0H53L-1-190h32L70-26l43-164h34l41 164 42-164h31" id="bo"/><g id="V"><use transform="matrix(0.049382716049382706,0,0,0.049382716049382706,0,0)" xlink:href="#bo"/><use transform="matrix(0.049382716049382706,0,0,0.049382716049382706,12.790123456790122,0)" xlink:href="#am"/><use transform="matrix(0.049382716049382706,0,0,0.049382716049382706,16.691358024691354,0)" xlink:href="#af"/><use transform="matrix(0.049382716049382706,0,0,0.049382716049382706,21.629629629629626,0)" xlink:href="#ag"/><use transform="matrix(0.049382716049382706,0,0,0.049382716049382706,31.506172839506167,0)" xlink:href="#am"/><use transform="matrix(0.049382716049382706,0,0,0.049382716049382706,35.4074074074074,0)" xlink:href="#ad"/></g><g id="W"><use transform="matrix(0.049382716049382706,0,0,0.049382716049382706,0,0)" xlink:href="#an"/><use transform="matrix(0.049382716049382706,0,0,0.049382716049382706,8.888888888888888,0)" xlink:href="#aj"/><use transform="matrix(0.049382716049382706,0,0,0.049382716049382706,18.76543209876543,0)" xlink:href="#ak"/><use transform="matrix(0.049382716049382706,0,0,0.049382716049382706,28.64197530864197,0)" xlink:href="#al"/><use transform="matrix(0.049382716049382706,0,0,0.049382716049382706,37.53086419753086,0)" xlink:href="#am"/><use transform="matrix(0.049382716049382706,0,0,0.049382716049382706,41.432098765432094,0)" xlink:href="#ak"/><use transform="matrix(0.049382716049382706,0,0,0.049382716049382706,51.30864197530863,0)" xlink:href="#an"/></g><g id="X"><use transform="matrix(0.049382716049382706,0,0,0.049382716049382706,0,0)" xlink:href="#bl"/><use transform="matrix(0.049382716049382706,0,0,0.049382716049382706,12.790123456790122,0)" xlink:href="#ak"/><use transform="matrix(0.049382716049382706,0,0,0.049382716049382706,22.666666666666664,0)" xlink:href="#aE"/><use transform="matrix(0.049382716049382706,0,0,0.049382716049382706,26.567901234567895,0)" xlink:href="#ae"/><use transform="matrix(0.049382716049382706,0,0,0.049382716049382706,36.44444444444444,0)" xlink:href="#af"/><use transform="matrix(0.049382716049382706,0,0,0.049382716049382706,41.382716049382715,0)" xlink:href="#ak"/><use transform="matrix(0.049382716049382706,0,0,0.049382716049382706,51.25925925925925,0)" xlink:href="#aB"/><use transform="matrix(0.049382716049382706,0,0,0.049382716049382706,61.135802469135804,0)" xlink:href="#ad"/><use transform="matrix(0.049382716049382706,0,0,0.049382716049382706,71.01234567901234,0)" xlink:href="#ak"/><use transform="matrix(0.049382716049382706,0,0,0.049382716049382706,80.88888888888889,0)" xlink:href="#an"/><use transform="matrix(0.049382716049382706,0,0,0.049382716049382706,89.77777777777777,0)" xlink:href="#an"/></g><g id="Y"><use transform="matrix(0.049382716049382706,0,0,0.049382716049382706,0,0)" xlink:href="#af"/><use transform="matrix(0.049382716049382706,0,0,0.049382716049382706,4.93827160493827,0)" xlink:href="#ai"/></g><g id="Z"><use transform="matrix(0.049382716049382706,0,0,0.049382716049382706,0,0)" xlink:href="#ak"/><use transform="matrix(0.049382716049382706,0,0,0.049382716049382706,9.87654320987654,0)" xlink:href="#an"/><use transform="matrix(0.049382716049382706,0,0,0.049382716049382706,18.76543209876543,0)" xlink:href="#af"/><use transform="matrix(0.049382716049382706,0,0,0.049382716049382706,23.703703703703702,0)" xlink:href="#ae"/><use transform="matrix(0.049382716049382706,0,0,0.049382716049382706,33.58024691358024,0)" xlink:href="#bf"/><use transform="matrix(0.049382716049382706,0,0,0.049382716049382706,43.456790123456784,0)" xlink:href="#aE"/><use transform="matrix(0.049382716049382706,0,0,0.049382716049382706,47.35802469135802,0)" xlink:href="#am"/><use transform="matrix(0.049382716049382706,0,0,0.049382716049382706,51.25925925925925,0)" xlink:href="#an"/><use transform="matrix(0.049382716049382706,0,0,0.049382716049382706,60.14814814814814,0)" xlink:href="#ag"/><use transform="matrix(0.049382716049382706,0,0,0.049382716049382706,70.02469135802468,0)" xlink:href="#ak"/><use transform="matrix(0.049382716049382706,0,0,0.049382716049382706,79.90123456790123,0)" xlink:href="#aB"/></g><g id="aa"><use transform="matrix(0.049382716049382706,0,0,0.049382716049382706,0,0)" xlink:href="#an"/><use transform="matrix(0.049382716049382706,0,0,0.049382716049382706,8.888888888888888,0)" xlink:href="#ac"/><use transform="matrix(0.049382716049382706,0,0,0.049382716049382706,17.777777777777775,0)" xlink:href="#ad"/><use transform="matrix(0.049382716049382706,0,0,0.049382716049382706,27.654320987654316,0)" xlink:href="#ae"/><use transform="matrix(0.049382716049382706,0,0,0.049382716049382706,37.53086419753086,0)" xlink:href="#ad"/><use transform="matrix(0.049382716049382706,0,0,0.049382716049382706,47.407407407407405,0)" xlink:href="#af"/><use transform="matrix(0.049382716049382706,0,0,0.049382716049382706,52.34567901234568,0)" xlink:href="#ag"/><use transform="matrix(0.049382716049382706,0,0,0.049382716049382706,62.22222222222221,0)" xlink:href="#ah"/><use transform="matrix(0.049382716049382706,0,0,0.049382716049382706,68.09876543209876,0)" xlink:href="#ai"/><use transform="matrix(0.049382716049382706,0,0,0.049382716049382706,77.9753086419753,0)" xlink:href="#aj"/><use transform="matrix(0.049382716049382706,0,0,0.049382716049382706,87.85185185185185,0)" xlink:href="#am"/><use transform="matrix(0.049382716049382706,0,0,0.049382716049382706,91.75308641975307,0)" xlink:href="#al"/></g></defs></g></svg>